<svg xmlns="http://www.w3.org/2000/svg" xmlns:xlink="http://www.w3.org/1999/xlink" width="110.06876" height="103.52014" viewBox="0 0 110.06876 103.52014">
  <defs>
    <clipPath id="clip-path" transform="translate(-4.17182 -0.01459)">
      <path d="M53.101,14.8l-.055.824q-1.392.222-2.745.559l-.387-.894-1.413.282.045,1.096q-1.0725.327-2.114.723l-.565-1.198-1.515.528.256,1.424q-.951.426-1.874.91L41.652,17.51l-1.188.79095.495,1.752q-.87148.52651-1.71,1.101l-1.486-1.733-1.119.857.848,2.168c-.493.388-.977.788-1.447,1.202L34.14,21.793l-1.12,1.054,1.574,2.152q-.70953.699-1.38,1.437l-2.501-1.744-.857.857,1.989,2.501q-.55047.69-1.068,1.409l-3.095-1.867-.789,1.185,2.174,2.438-.726,1.12-3.029-1.384-.726,1.318,2.373,2.24-.725,1.186-3.229-1.12-.462,1.581L24.916,37.804,24.454,39.187l-3.359-.791-.529,1.647,2.703,1.385-.33,1.581-3.427-.33-.066,1.582,2.901,1.053-.265,1.515-3.425.067-.066,1.515,3.03,1.054-.197,1.318-3.559.264v1.91l3.163.461v1.384l-2.832.396.065,1.646,2.966.396v1.581l-2.57.856.262,1.713,3.032-.198.396,1.32L19.579,64.29l.66,1.25,2.898-.722.657,1.513-2.635,1.778.659,1.251,2.964-.922.66,1.516-2.306,1.778.592,1.384,2.768-1.318,1.12,1.45-2.174,2.437.856.924,2.635-1.386,1.055.924L28.143,78.98l.922.988,2.702-1.844,1.119.988L31.437,82.01l1.186.726,2.109-2.306,1.449.988-1.252,2.964.988.725,2.306-2.24,1.516.725-1.121,2.833,1.319.857,1.646-2.702,1.516.592-.592,3.296,1.711.461,1.45-3.097,1.45.527-.131,3.36,1.316.198.923-3.031,1.516.198.33,3.294,1.515.132.528-3.03,1.777-.068.593,3.032L57,90.313l.265-2.966,1.712-.197.989,3.095,1.515-.13-.197-3.096,1.647-.528,1.45,2.899,1.25-.593-.592-2.833,1.372-.899,2.003,3.005,1.289-.859-.573-3.006,1.143-.571,2.146,2.719,1.291-1.002-1.291-2.862,1.004-1.145,2.575,2.577L77.144,82.919l-1.289-2.433,1.289-1.288,2.146,1.861.858-1.00195L78.86,77.48l1.002-.858,2.719,1.717,1.146-1.002-1.862-2.433.912-1.041c.032-.034.064-.067.096-.1l2.714,1.285,1.144-1.146-2.004-1.86,1.002-1.145,3.007.43.571-1.432L87.07,68.498c.328-.505.677-1.053.978-1.576l1.831.255.573-1.431-1.397-.739q.432-.86994.812-1.765l1.157-.073.143-1.86005-.488-.163q.3675-1.04856.671-2.126c.189-.651.39-1.533.39-1.533q.31347-1.35755.518-2.755c.075-.498.133-1.025.133-1.025a34.98194,34.98194,0,0,0,.237-4.053A34.31461,34.31461,0,0,0,58.49,15.191l-.094-.391-1.003-.143-.155.557q-1.332.04953-2.639.197l-.197-.775Z" fill="none"/>
    </clipPath>
    <radialGradient id="radial-gradient" cx="-250.735" cy="710.83398" r="1" gradientTransform="matrix(34.53841, 0, 0, -34.53841, 8704.35567, 24580.1717)" gradientUnits="userSpaceOnUse">
      <stop offset="0" stop-color="#fff"/>
      <stop offset="0.91237" stop-color="#005baa"/>
      <stop offset="1" stop-color="#005baa"/>
    </radialGradient>
    <clipPath id="clip-path-2" transform="translate(-4.17182 -0.01459)">
      <rect width="114.24199" height="103.53497" fill="none"/>
    </clipPath>
    <clipPath id="clip-path-3" transform="translate(-4.17182 -0.01459)">
      <rect x="21.412" y="14.65698" width="71.21399" height="71.27197" fill="none"/>
    </clipPath>
  </defs>
  <g id="Layer_2" data-name="Layer 2">
    <g id="Layer_1-2" data-name="Layer 1">
      <g>
        <g clip-path="url(#clip-path)">
          <rect x="13.69343" y="14.62164" width="74.76212" height="75.8736" fill="url(#radial-gradient)"/>
        </g>
        <g clip-path="url(#clip-path-2)">
          <g opacity="0.5">
            <g clip-path="url(#clip-path-3)">
              <g clip-path="url(#clip-path-3)">
                <path d="M27.42747,51.12469h-6.015a35.44423,35.44423,0,0,0,3.256,14.034h5.203a45.627,45.627,0,0,1-2.444-14.034m2.827-17.293a38.957,38.957,0,0,1,5.79-10.184l-.315-.307h-2.224c-.025.022-.051.044-.076.067l1.165,1.591s-1.011,1.009-1.38,1.437l-1.722-1.2q-.522.531-1.023,1.084l1.376,1.73c-.092.091-1.069,1.41-1.069,1.41l-1.957-1.182q-.558.711-1.079,1.45l1.326,1.487-.725,1.12-1.786-.815q-.51151.82654-.98,1.684l.666.628Zm-.479,1.764h-5.229q-.336.74406-.64,1.508l1.009.7-.461,1.383-1.207-.284q-.3615,1.074-.655,2.178l.677.347-.33,1.581-.786-.075q-.225,1.074-.383,2.171l.576.209-.265,1.516-.519.01q-.11852,1.248-.15,2.521h6.015a45.68588,45.68588,0,0,1,2.348-13.765m33.758-20.02795a21.85277,21.85277,0,0,1,4.466,6.01h5.675a25.68252,25.68252,0,0,0-9.91-5.975Zm-9.014-.47c-2.301.982-4.44,3.256-6.274,6.48h17.662c-1.762-3.097-3.805-5.317-6.002-6.357,0,0-1.269-.06-1.415-.03l-.094-.391-1.003-.143-.156.558-2.638.196Zm32.205,36.027a45.62642,45.62642,0,0,1-2.443,14.034h5.061l-.289-.154s.692-1.435.816-1.763l1.155-.073.143-1.86-.49-.165a32.42889,32.42889,0,0,0,1.919-10.019Zm-2.93-17.351h5.013a35.106,35.106,0,0,0-8.348-10.491h-2.717a38.57768,38.57768,0,0,1,6.052,10.491m2.93,15.587h5.901a34.09892,34.09892,0,0,0-2.961-13.765h-5.287a45.68626,45.68626,0,0,1,2.347,13.765m-3.111,24.752c.518-.578.976-1.14,1.456-1.753l-.342-.318,1.001-1.145.404.058q.74551-1.05149,1.417-2.158l-.479-.299c.239-.342.978-1.576.978-1.576h-4.422a36.12477,36.12477,0,0,1-10.137,14.49m-.067-.068.067.068.352.351q1.0545-.55948,2.063-1.185l-.049-.092.033.064-.033-.064,1.288-1.288.37.321q.882-.61651,1.724-1.283l-.378-.756,1.003-.858.745.47q.879-.77253,1.706-1.602l-.448-.586,1.008-1.14105.723.343m-53.071-7.184h-4.985a35.90968,35.90968,0,0,0,16.824,15.82,35.52378,35.52378,0,0,1-11.839-15.82m41.813-48.771a30.882,30.882,0,0,1,3.801,3.427h2.141a35.76029,35.76029,0,0,0-5.942-3.427m-28.496,48.771c2.571,11.203,7.599,19.007,13.234,19.007,5.634,0,10.663-7.804,13.233-19.007Zm26.897-31.326H43.4135a76.276,76.276,0,0,0-1.371,13.765h30.067a76.37068,76.37068,0,0,0-1.37-13.765m-20.535-19.638-.113-.259q-.789.26249-1.561.58l.016.388s-1.466.438-2.112.723l-.051-.101a27.04812,27.04812,0,0,0-5.906,4.289h5.675a22.6095,22.6095,0,0,1,4.052-5.62m31.529,50.964h-9.552c-1.792,8.203-4.88,14.632-8.709,18.05005,7.913-2.383,14.538-9.084,18.261-18.05m-34.413-43.581a48.55221,48.55221,0,0,0-3.537,10.491h26.586a48.55051,48.55051,0,0,0-3.538-10.491Zm-5.349,43.581h-9.552c3.722,8.966,10.347,15.66706,18.261,18.05005-3.829-3.418-6.918-9.847-8.709-18.05m30.57-1.763h9.874a43.81571,43.81571,0,0,0,2.546-14.034h-11.088a80.0395,80.0395,0,0,1-1.332,14.034m-30.631-31.327a50.5962,50.5962,0,0,1,3.371-10.491h-6.508a36.02862,36.02862,0,0,0-6.463,10.491Zm40.601,1.764h-9.918a80.27044,80.27044,0,0,1,1.28,13.765h11.088a43.87732,43.87732,0,0,0-2.45-13.765m-.67-1.764a36.00555,36.00555,0,0,0-6.462-10.491h-6.509a50.5962,50.5962,0,0,1,3.371,10.491Zm-40.282,1.764h-9.917a43.8493,43.8493,0,0,0-2.452,13.765h11.089a80.07051,80.07051,0,0,1,1.28-13.765m1.906,29.563h27.221a76.14855,76.14855,0,0,0,1.423-14.034H42.0425a76.14855,76.14855,0,0,0,1.423,14.034m-11.728,0h9.873a79.94608,79.94608,0,0,1-1.331-14.034h-11.089a43.8157,43.8157,0,0,0,2.547,14.034" transform="translate(-4.17182 -0.01459)" fill="#fff"/>
              </g>
            </g>
          </g>
          <path d="M19.89589,87.1795l-.017-.019a1.33751,1.33751,0,0,1-1.45-.28595c-1.002-1.073.508-2.89105,1.27-3.604.819-.767,2.616-2.147,3.655-1.036a1.31131,1.31131,0,0,1,.159,1.528l.017.019,3.427-3.205,1.241,1.327-7.597,7.105-1.241-1.327Zm1.953-1.649c.263-.24695,1.244-1.217.821-1.669-.414-.442-1.438.463-1.711.718-.301.282-1.263,1.216-.822,1.687.396.423,1.457-.498,1.712-.736" transform="translate(-4.17182 -0.01459)" fill="#231f20"/>
          <path d="M26.77467,90.71l-2.189-1.863c-.3.372-.988,1.14-.457,1.591.353.301.674.101.926-.193l1.177,1.002c-.894.81195-1.946,1.15295-2.956.293-1.404-1.194-.844-2.867.2-4.094,1.011-1.188,2.712-2.312,4.156-1.085.912.777,1.063,2.31-.344,3.804Zm-.342-1.966c.276-.324.708-.971.276-1.339-.422-.359-.995.135-1.262.449l-.125.147,1.012.86Z" transform="translate(-4.17182 -0.01459)" fill="#231f20"/>
          <rect x="27.18163" y="90.65558" width="10.40132" height="1.8171" transform="translate(-66.78202 71.32502) rotate(-58.50432)" fill="#231f20"/>
          <path d="M34.427,97.76611l-.023-.011a1.33749,1.33749,0,0,1-1.458.24c-1.316-.653-.539-2.886-.074-3.821.498-1.004,1.698-2.927,3.06-2.251a1.314,1.314,0,0,1,.684,1.376l.023.011.355-.715,1.628.808-2.895,5.829-1.627-.808Zm1.25-2.228c.16-.324.739-1.576.185-1.851-.543-.269-1.185.937-1.351,1.272-.184.369-.756,1.582-.18,1.868.52.258,1.191-.978,1.346-1.289" transform="translate(-4.17182 -0.01459)" fill="#231f20"/>
          <path d="M46.5417,92.62579l-.259,9.991-1.979-.53.075-1.67395-1.88-.50305-.76,1.491-1.843-.493,4.691-8.805Zm-1.848,3.615.169-1.47595-.025-.006-.58,1.365-1.068,2.397,1.308.349Z" transform="translate(-4.17182 -0.01459)" fill="#231f20"/>
          <path d="M50.1508,102.391l-.026-.003a1.33662,1.33662,0,0,1-1.302.696c-1.458-.195-1.439-2.559-1.3-3.594.149-1.112.666-3.318,2.173-3.116a1.312,1.312,0,0,1,1.09,1.08295l.025.00305.625-4.64905,1.801.241-1.383,10.308-1.801-.241Zm.467-2.512c.047-.358.192-1.73-.421-1.81195-.6-.08-.82,1.268-.869,1.639-.055.408-.208,1.741.431,1.826.574.077.813-1.308.859-1.653" transform="translate(-4.17182 -0.01459)" fill="#231f20"/>
          <path d="M54.9286,98.0567h.026a1.8181,1.8181,0,0,1,1.589-1.185,1.15723,1.15723,0,0,1,1.13,1.101h.026a1.85925,1.85925,0,0,1,1.551-1.12c1.173-.009,1.182,1.293,1.188,2.13l.033,4.499-1.818.013-.024-3.532c-.003-.335.08-1.289-.461-1.28595-.426.004-.487.443-.485.739l.03,4.086-1.818.013-.026-3.64795c-.002-.322.082-1.147-.434-1.144-.451.004-.512.416-.51.752l.029,4.047-1.817.013-.047-6.509,1.818-.013Z" transform="translate(-4.17182 -0.01459)" fill="#231f20"/>
          <path d="M60.46288,94.87982a1.15347,1.15347,0,1,1,2.293-.253,1.15347,1.15347,0,1,1-2.293.253m2.283,1.683.788,6.46105-1.804.22-.788-6.461Z" transform="translate(-4.17182 -0.01459)" fill="#231f20"/>
          <path d="M65.4352,97.11237l.025-.00495a1.68229,1.68229,0,0,1,1.24-1.423c1.311-.278,1.508,1.208,1.704,2.129l.872,4.11-1.778.377-.741-3.492c-.07-.328-.131-1.238-.699-1.117-.403.086-.39.518-.323.833l.842,3.971-1.778.378-1.351-6.367,1.778-.377Z" transform="translate(-4.17182 -0.01459)" fill="#231f20"/>
          <path d="M67.78288,93.5329a1.15341,1.15341,0,1,1,2.213-.651,1.15341,1.15341,0,1,1-2.213.651m2.541,1.257,1.906,6.223-1.737.532-1.907-6.223Z" transform="translate(-4.17182 -0.01459)" fill="#231f20"/>
          <path d="M74.72279,95.0047a1.26919,1.26919,0,0,0-.971-.071.44348.44348,0,0,0-.279.624c.305.697,2.152-.204,2.871,1.604a2.06315,2.06315,0,0,1-1.096,2.892,3.16083,3.16083,0,0,1-2.097.029l.266-1.49194a1.38268,1.38268,0,0,0,.996.061.5185.5185,0,0,0,.291-.698c-.295-.812-2.167.169-2.928-1.748a1.97,1.97,0,0,1,1.317-2.577,2.81164,2.81164,0,0,1,1.822-.129Z" transform="translate(-4.17182 -0.01459)" fill="#231f20"/>
          <polygon points="72.441 90.121 73.262 91.727 73.928 91.387 74.609 92.718 73.942 93.059 76.226 97.523 74.608 98.35 72.325 93.886 71.762 94.173 71.082 92.842 71.644 92.555 70.823 90.948 72.441 90.121" fill="#231f20"/>
          <path d="M80.22911,90.10406l.417.66706.022-.014a1.848,1.848,0,0,1,.71-1.66l.935,1.498a1.88056,1.88056,0,0,0-.253.128c-1.028.642-.615,1.326-.103,2.146l1.722,2.755-1.541.963-3.451-5.52Z" transform="translate(-4.17182 -0.01459)" fill="#231f20"/>
          <path d="M87.71638,91.8634l-.021.016a1.33738,1.33738,0,0,1-.417,1.417c-1.161.901-2.833-.771-3.473-1.596-.688-.886-1.897-2.803-.696-3.73395a1.31057,1.31057,0,0,1,1.536-.018l.022-.01606-.49-.631,1.435-1.114,3.99,5.142-1.436,1.114Zm-1.463-2.095c-.221-.285-1.097-1.35095-1.586-.972-.478.371.329,1.475.558,1.77.252.325,1.095,1.369,1.604.974.458-.356-.363-1.497-.576-1.772" transform="translate(-4.17182 -0.01459)" fill="#231f20"/>
          <path d="M92.87,88.11151a2.42076,2.42076,0,0,1-.596.888c-1.279,1.217-3.007.3-4.028-.774-1.13-1.185-1.898-2.927-.536-4.225a2.20213,2.20213,0,0,1,.787-.482l1.102,1.157a.69277.69277,0,0,0-.525.216c-.644.613-.046,1.521.416,2.006.48.504,1.302,1.163,1.966.532a.9684.9684,0,0,0,.267-.522Z" transform="translate(-4.17182 -0.01459)" fill="#231f20"/>
          <path d="M87.27718,81.86115a1.15339,1.15339,0,1,1,1.57-1.69,1.15339,1.15339,0,1,1-1.57,1.69m2.827-.21906,4.821,4.37305-1.221,1.346-4.821-4.373Z" transform="translate(-4.17182 -0.01459)" fill="#231f20"/>
          <path d="M90.71056,76.66785l.413,2.399-.947.397-.732-2.107Zm5.408,2.593c1.326,1.005,2.373,2.461,1.198,4.012-1.176,1.551-2.861.938-4.187-.067-1.325-1.004-2.382-2.468-1.207-4.019s2.871-.929,4.196.074m-1.891,2.497c.298.226,1.413,1.038,1.794.535.382-.504-.702-1.358-1-1.583-.298-.226-1.412-1.038-1.794-.534-.382.503.702,1.356,1,1.582" transform="translate(-4.17182 -0.01459)" fill="#231f20"/>
          <path d="M95.53709,75.87506l.013-.022a1.67888,1.67888,0,0,1-.212-1.875c.68-1.155,1.909-.296,2.72.181l3.621,2.132-.922,1.566-3.077-1.811c-.288-.171-1-.739-1.295-.24-.209.356.119.638.395.802l3.499,2.06-.922,1.566-5.608-3.303.921-1.566Z" transform="translate(-4.17182 -0.01459)" fill="#231f20"/>
          <polygon points="3.293 33.994 5.006 34.56 4.395 36.408 6.402 37.071 6.94 35.444 8.654 36.009 8.116 37.637 10.196 38.325 10.815 36.452 12.528 37.018 11.307 40.714 2.08 37.664 3.293 33.994" fill="#231f20"/>
          <path d="M14.11961,31.19568a1.26919,1.26919,0,0,0-.756.614.44333.44333,0,0,0,.225.645c.7.299,1.426-1.624,3.19-.801a2.06327,2.06327,0,0,1,1.185,2.856,3.15663,3.15663,0,0,1-1.506,1.459l-.83-1.268a1.38542,1.38542,0,0,0,.767-.638.51863.51863,0,0,0-.267-.70794c-.772-.388-1.461,1.60894-3.331.737a1.97341,1.97341,0,0,1-.807-2.781,2.79943,2.79943,0,0,1,1.238-1.342Z" transform="translate(-4.17182 -0.01459)" fill="#231f20"/>
          <path d="M20.77541,28.9198a2.42712,2.42712,0,0,1-.34,1.014c-.91,1.513-2.819,1.087-4.089.322-1.403-.84406-2.606-2.319-1.635-3.932a2.18684,2.18684,0,0,1,.63-.673l1.369.824a.68725.68725,0,0,0-.448.347c-.459.762.358,1.479.932,1.825.597.358,1.564.774,2.036-.009a.96717.96717,0,0,0,.12-.575Z" transform="translate(-4.17182 -0.01459)" fill="#231f20"/>
          <path d="M17.20259,22.9292l2.834,2.171c.287.22.999.944,1.367.463.298-.39-.238-.751-.493-.947l-3.144-2.424,1.097-1.432,3.295,2.524c1.197.916,1.544,2.075.564,3.354-1.254,1.637-2.584.83-3.525.109l-3.101-2.375Z" transform="translate(-4.17182 -0.01459)" fill="#231f20"/>
          <path d="M25.83739,18.87524l-2.022,2.044c.348.326,1.063,1.069,1.553.575.326-.329.151-.666-.124-.938l1.088-1.09906c.743.953,1.004,2.027.07,2.97-1.296,1.31-2.922.626-4.067-.507-1.109-1.097-2.102-2.878-.77-4.225.843-.852,2.383-.888,3.767.627Zm-1.986.194c-.302-.299-.916-.779-1.314-.376-.39.394.059,1.002.353,1.292l.137.136.934-.944Z" transform="translate(-4.17182 -0.01459)" fill="#231f20"/>
          <rect x="24.90321" y="10.54924" width="1.81736" height="10.40136" transform="translate(-8.263 20.2209) rotate(-39.92171)" fill="#231f20"/>
          <path d="M32.47429,16.33191l-.021.015a1.3375,1.3375,0,0,1-.503,1.389c-1.213.829-2.781-.94-3.37-1.802-.633-.926-1.725-2.91095-.469-3.769a1.31061,1.31061,0,0,1,1.534.075l.022-.014-.451-.661,1.5-1.025,3.673,5.373-1.501,1.026Zm-1.334-2.179c-.204-.298-1.014-1.415-1.524-1.066-.501.342.238,1.491.45,1.801.232.34,1.01,1.432,1.541,1.068.479-.327-.271-1.515-.467-1.803" transform="translate(-4.17182 -0.01459)" fill="#231f20"/>
          <path d="M40.33269,12.19922l-.024.011a1.336,1.336,0,0,1-.776,1.25695c-1.358.56305-2.53-1.49-2.93-2.455-.43-1.036-1.092-3.203.313-3.785a1.30888,1.30888,0,0,1,1.486.387l.024-.01-1.798-4.333,1.679-.696,3.986,9.607-1.679.696Zm-.859-2.406c-.139-.33294-.703-1.592-1.274-1.355-.559.232-.072,1.509.072,1.854.158.381.695,1.609,1.29,1.362.536-.222.045-1.539-.088-1.861" transform="translate(-4.17182 -0.01459)" fill="#231f20"/>
          <path d="M46.777,8.04932l-2.775.75c.137.456.381,1.459,1.053,1.278.447-.121.465-.5.365-.873l1.493-.404c.163,1.198-.152,2.258-1.433,2.604-1.779.48-2.841-.929-3.261-2.485-.406-1.505-.369-3.544,1.46-4.038,1.157-.312,2.506.431,2.941,2.437Zm-1.813-.83106c-.111-.41095-.4-1.134-.947-.986-.535.144-.453.896-.345,1.294l.05.187,1.282-.346Z" transform="translate(-4.17182 -0.01459)" fill="#231f20"/>
          <path d="M56.05479,1.90576a2.75175,2.75175,0,0,0-.726-.06195c-1.685.097-2.331,1.671-2.245,3.163.083,1.441.918,3.175,2.591,3.078a2.44626,2.44626,0,0,0,.725-.183l.104,1.814a2.30418,2.30418,0,0,1-.878.218c-2.766.159-4.441-2.249-4.588-4.796-.138-2.407,1.316-4.96906,3.928-5.119a2.87121,2.87121,0,0,1,.988.124Z" transform="translate(-4.17182 -0.01459)" fill="#231f20"/>
          <path d="M59.3181,3.42969l-.267,6.503-1.817-.075.268-6.503Zm-1.981-2.03a1.1536,1.1536,0,1,1,2.304.121,1.1536,1.1536,0,1,1-2.304-.121" transform="translate(-4.17182 -0.01459)" fill="#231f20"/>
          <path d="M64.79439,7.81262l-2.848-.386c-.052.474-.216,1.491.474,1.585.46.063.623-.279.675-.662l1.532.208c-.314,1.167-1.016,2.02105-2.331,1.842-1.827-.247-2.257-1.958-2.04-3.554.21-1.546,1.036-3.411,2.913-3.156,1.188.162,2.142,1.371,1.764,3.388Zm-1.348-1.471c.057-.421.072-1.199-.49-1.27594-.549-.075-.765.65-.82,1.059l-.026.192,1.315.179Z" transform="translate(-4.17182 -0.01459)" fill="#231f20"/>
          <path d="M68.4221,5.88159l.025.006a1.68082,1.68082,0,0,1,1.751-.702c1.294.348.793,1.762.549,2.67l-1.091,4.058-1.756-.473.928-3.448c.087-.323.447-1.161-.114-1.311-.398-.107-.583.283-.667.594l-1.055,3.921-1.755-.473,1.691-6.285,1.755.472Z" transform="translate(-4.17182 -0.01459)" fill="#231f20"/>
          <path d="M73.60951,13.35187a2.42432,2.42432,0,0,1-1.057-.167c-1.642-.64795-1.536-2.603-.992-3.981.601-1.522,1.858-2.952,3.609-2.261a2.17824,2.17824,0,0,1,.768.51105l-.587,1.486a.68892.68892,0,0,0-.416-.386c-.827-.327-1.399.598-1.645,1.221-.256.648-.507,1.671.344,2.007a.95385.95385,0,0,0,.586.02295Z" transform="translate(-4.17182 -0.01459)" fill="#231f20"/>
          <path d="M78.72841,8.73132l-2.866,5.844-1.632-.8,2.866-5.844Zm-.995-2.655a1.15385,1.15385,0,1,1,2.06,1.04,1.15385,1.15385,0,1,1-2.06-1.04" transform="translate(-4.17182 -0.01459)" fill="#231f20"/>
          <path d="M79.49748,15.8252l-.023-.014a1.33766,1.33766,0,0,1-1.474.105c-1.249-.772-.269-2.923.28-3.811.589-.954,1.961-2.759,3.255-1.959a1.31116,1.31116,0,0,1,.554,1.433l.021.013.421-.68,1.546.95606-3.42,5.537-1.546-.955Zm1.45-2.103c.19-.307.882-1.501.355-1.826-.515-.319-1.266.824-1.462,1.142-.217.351-.899,1.504-.351,1.843.493.304,1.275-.863,1.458-1.15906" transform="translate(-4.17182 -0.01459)" fill="#231f20"/>
          <path d="M86.91081,16.28326a1.2676,1.2676,0,0,0-.418-.87994.44388.44388,0,0,0-.68.065c-.456.61,1.239,1.772.021,3.289a2.06235,2.06235,0,0,1-3.055.474,3.16005,3.16005,0,0,1-1.061-1.809l1.43-.506a1.38062,1.38062,0,0,0,.438.897.51681.51681,0,0,0,.75-.092c.561-.657-1.216-1.801.075-3.409a1.97315,1.97315,0,0,1,2.893-.125,2.80283,2.80283,0,0,1,1.01,1.52Z" transform="translate(-4.17182 -0.01459)" fill="#231f20"/>
          <path d="M86.57091,30.03107c-2.343.98205-8.162,3.595-11.601,6.712a12.95412,12.95412,0,0,1-10.827,3.016s-6.99-2.331-16.038-14.118h-2.74a93.47462,93.47462,0,0,0,9.378,13.091,20.85176,20.85176,0,0,1,5.044,10.776c.944,7.243.03,19.642-8.731,38.941,0,0,15.827-15.52,19.802-34.161,0,0,3.81-16.804,16.967-22.287,0,0-.669-1.168-1.254-1.97" transform="translate(-4.17182 -0.01459)" fill="#fff"/>
          <path d="M62.55571,32.92346c1.073,2.579,3.458,4.505,5.324,4.298,1.868-.206,2.51-2.466,1.435-5.048-1.075-2.581-3.459-4.504-5.325-4.298-1.866.207-2.509,2.465-1.434,5.048" transform="translate(-4.17182 -0.01459)" fill="#fff"/>
          <path d="M50.742,87.08411s7.075-31.128-19.33-42.042c0,0-10.277,23.176,19.33,42.042" transform="translate(-4.17182 -0.01459)" fill="#fff"/>
          <path d="M50.742,87.08411s-.494-29.542-15.633-32.007c0,0,9.966.996,15.633,32.007" transform="translate(-4.17182 -0.01459)" fill="#005baa"/>
          <path d="M96.37459,34.76459a75.145,75.145,0,0,0,17.866-7.683,34.83274,34.83274,0,0,1-8.537,19.344s2.135-5.322-.197-9.32c0,0-2.481,3.276-11.427,9.192-33.138,22.272-69.322,24.481-69.322,24.481-20.209,2.279-20.488-4.164-20.488-4.164-1.42-5.583,13.1-14.224,13.1-14.224v2.482c-17.37,14.888,4.489,13.532,4.489,13.532a161.36307,161.36307,0,0,0,65.444-19.56,104.46006,104.46006,0,0,0,17.509-12.434,10.96423,10.96423,0,0,0-8.437-1.64605" transform="translate(-4.17182 -0.01459)" fill="#ffc425"/>
        </g>
      </g>
    </g>
  </g>
</svg>
