<svg xmlns="http://www.w3.org/2000/svg" xmlns:xlink="http://www.w3.org/1999/xlink" width="140.48982" height="153.64343" viewBox="0 0 140.48982 153.64343">
  <defs>
    <clipPath id="clip-path" transform="translate(28.06741 20.15839)">
      <path d="M51.99,43.854a9.83669,9.83669,0,0,1-19.669,0V3.263a40.87113,40.87113,0,0,0-5.413,1.77V41.787c0,8.974,6.918,16.247,15.452,16.247,8.532,0,15.446-7.273,15.446-16.247V5.178A39.86988,39.86988,0,0,0,51.99,3.253Z" fill="none"/>
    </clipPath>
    <linearGradient id="linear-gradient" x1="-95.434" y1="711.30621" x2="-94.434" y2="711.30621" gradientTransform="matrix(0.00004, 296.4473, 296.45225, 0.28139, -210825.96297, 28098.98607)" gradientUnits="userSpaceOnUse">
      <stop offset="0" stop-color="#fff"/>
      <stop offset="1" stop-color="#005baa"/>
    </linearGradient>
    <clipPath id="clip-path-2" transform="translate(28.06741 20.15839)">
      <path d="M35.45,2.62V42.043c0,4.339,3.069,7.856,6.861,7.856,3.791,0,6.862-3.517,6.862-7.856V2.665a40.80738,40.80738,0,0,0-4.839-.556V42.51a1.87956,1.87956,0,0,1-1.884,1.878c-1.042,0-1.883-.84-1.883-2.999V2.093a39.8267,39.8267,0,0,0-5.117.527" fill="none"/>
    </clipPath>
    <linearGradient id="linear-gradient-2" x1="-95.434" y1="711.30917" x2="-94.434" y2="711.30917" gradientTransform="matrix(-0.00005, 225.85928, 225.86304, 0.21446, -160616.14874, 21411.52211)" xlink:href="#linear-gradient"/>
    <clipPath id="clip-path-3" transform="translate(28.06741 20.15839)">
      <path d="M18.37,9.784v33.27A24.00994,24.00994,0,0,0,42.205,66.992c13.162,0,23.834-10.91,23.834-24.371V9.823a40.41361,40.41361,0,0,0-5.004-3.118V43.926c0,9.769-8.378,17.684-18.711,17.684-10.336,0-18.716-7.915-18.716-17.684V6.557A40.19026,40.19026,0,0,0,18.37,9.784" fill="none"/>
    </clipPath>
    <linearGradient id="linear-gradient-3" x1="-95.434" y1="711.30437" x2="-94.434" y2="711.30437" gradientTransform="matrix(0.00003, 359.92271, 359.9287, 0.34165, -255976.65295, 34114.49159)" xlink:href="#linear-gradient"/>
    <clipPath id="clip-path-4" transform="translate(28.06741 20.15839)">
      <path d="M1.657,42.531A40.5205,40.5205,0,1,0,78.038,23.683v19.76c0,19.412-16.049,35.151-35.842,35.151-19.794,0-35.84-15.739-35.84-35.151V23.61A40.25476,40.25476,0,0,0,1.657,42.531" fill="none"/>
    </clipPath>
    <linearGradient id="linear-gradient-4" x1="-95.434" y1="711.29988" x2="-94.434" y2="711.29988" gradientTransform="matrix(0.00006, 443.16622, 443.17362, 0.42064, -315187.15901, 42010.58361)" xlink:href="#linear-gradient"/>
    <clipPath id="clip-path-5" transform="translate(28.06741 20.15839)">
      <path d="M9.692,18.335V42.087c0,18.319,14.549,33.176,32.495,33.176,17.95,0,32.5-14.857,32.5-33.176V18.369a40.65636,40.65636,0,0,0-5.569-6.062V44.388c0,14.51-12.06,26.271-26.94,26.271-14.881,0-26.941-11.761-26.941-25.804V12.303a40.74672,40.74672,0,0,0-5.545,6.032" fill="none"/>
    </clipPath>
    <linearGradient id="linear-gradient-5" x1="-95.434" y1="711.30312" x2="-94.434" y2="711.30312" gradientTransform="matrix(0.00008, 408.88065, 408.88746, 0.38808, -290800.72893, 38756.40323)" xlink:href="#linear-gradient"/>
    <clipPath id="clip-path-6" transform="translate(28.06741 20.15839)">
      <rect width="82.69799" height="116.84198" fill="none"/>
    </clipPath>
    <clipPath id="clip-path-7" transform="translate(28.06741 20.15839)">
      <path d="M22.175,76.248s-5.319.032-10.323,5.155L0,90.052,10.331,101.7s6.351-7.402,12.262-9.496c0,0,4.457.22,12.204,3.364,0,0,5.197,2.907,8.266,1.482l20.042-9.528s3.655-2.116,3.736-2.864c0,0-.319-6.516-9.937-2.848,0,0-5.607,2.068-7.725,2.929a4.71314,4.71314,0,0,1,.53,3.444,2.07979,2.07979,0,0,1-1.653,1.252l-.062.012s-2.736-.06-2.802-.061c-.437.043-6.036.587-8.849-.107L29.324,87.86l.225-1.113s7.02,1.419,7.043,1.424c2.699.664,8.462.088,8.52.081l.036-.003s2.572.056,2.727.059c.54-.12.705-.367.777-.546a1.32857,1.32857,0,0,0,.084-.497,6.57922,6.57922,0,0,0-.939-2.734,12.05865,12.05865,0,0,0-7.516-1.694,18.4835,18.4835,0,0,1-7.385-1.842s-6.423-4.751-10.506-4.751c-.073,0-.144.001-.215.004" fill="none"/>
    </clipPath>
    <linearGradient id="linear-gradient-6" x1="-95.434" y1="711.27109" x2="-94.434" y2="711.27109" gradientTransform="matrix(29.85149, 0, -0.02697, -29.8428, 2877.00224, 21315.29315)" xlink:href="#linear-gradient"/>
  </defs>
  <g id="Layer_2" data-name="Layer 2">
    <g id="Layer_1-2" data-name="Layer 1">
      <g>
        <g clip-path="url(#clip-path)">
          <rect x="12.13822" y="0.27255" width="60.43763" height="60.74191" transform="translate(18.73633 58.64294) rotate(-44.51009)" fill="url(#linear-gradient)"/>
        </g>
        <g clip-path="url(#clip-path-2)">
          <rect x="20.66152" y="4.12875" width="43.2999" height="43.73459" transform="translate(21.98129 57.27778) rotate(-44.51011)" fill="url(#linear-gradient-2)"/>
        </g>
        <g clip-path="url(#clip-path-3)">
          <rect x="4.02391" y="-1.48718" width="76.36112" height="76.52343" transform="translate(14.3945 60.29482) rotate(-44.51009)" fill="url(#linear-gradient-3)"/>
        </g>
        <g clip-path="url(#clip-path-4)">
          <rect x="-7.54026" y="3.7318" width="99.43552" height="99.15847" transform="translate(2.7941 65.01978) rotate(-44.51009)" fill="url(#linear-gradient-4)"/>
        </g>
        <g clip-path="url(#clip-path-5)">
          <rect x="-3.05399" y="-1.44706" width="90.48695" height="90.46016" transform="translate(9.47701 62.29485) rotate(-44.51009)" fill="url(#linear-gradient-5)"/>
        </g>
        <polygon points="47.712 127.295 47.712 121.277 49.861 121.277 49.861 121.971 48.51 121.971 48.51 123.863 49.717 123.863 49.717 124.557 48.51 124.557 48.51 126.601 49.861 126.601 49.861 127.295 47.712 127.295" fill="#231f20"/>
        <g clip-path="url(#clip-path-6)">
          <path d="M24.27007,102.04376a1.09881,1.09881,0,0,0-.67907-.25543.72311.72311,0,0,0-.71134.77435.97477.97477,0,0,0,.224.65442l.60709.66272a2.23379,2.23379,0,0,1,.855,1.764,1.44661,1.44661,0,0,1-1.41414,1.57257,1.40171,1.40171,0,0,1-.879-.28735v-.80658a1.30364,1.30364,0,0,0,.791.3114c.49538,0,.70306-.39075.70306-.83795,0-1.19727-1.68581-1.437-1.68581-3.017a1.36307,1.36307,0,0,1,1.35041-1.5409,1.6172,1.6172,0,0,1,.84678.19977Z" transform="translate(28.06741 20.15839)" fill="#231f20"/>
          <path d="M27.57771,101.93988a1.15633,1.15633,0,0,0-.51138-.15155c-1.11845,0-1.12646,1.62854-1.12646,2.37885,0,.79827.064,2.299,1.15846,2.299a.98989.98989,0,0,0,.47938-.12012v.70264a1.13163,1.13163,0,0,1-.63936.16778c-1.62956,0-1.84525-1.73212-1.84525-2.99359,0-1.20526.15144-3.18482,1.78926-3.18482a1.24006,1.24006,0,0,1,.69535.17579Z" transform="translate(28.06741 20.15839)" fill="#231f20"/>
          <path d="M28.99187,101.11792v4.41437c0,.77405.23169.93384.55909.93384.55164,0,.59936-.35157.60762-.8462v-4.502h.79879v4.27057c0,.79.008,1.828-1.38241,1.828-1.27016,0-1.38214-.86224-1.38214-1.94818v-4.15039Z" transform="translate(28.06741 20.15839)" fill="#231f20"/>
          <polygon points="62.141 121.276 62.141 121.971 60.791 121.971 60.791 123.863 61.997 123.863 61.997 124.557 60.791 124.557 60.791 126.6 62.141 126.6 62.141 127.295 59.992 127.295 59.992 121.276 62.141 121.276" fill="#231f20"/>
          <polygon points="63.563 121.276 63.563 126.6 64.905 126.6 64.905 127.295 62.764 127.295 62.764 121.276 63.563 121.276" fill="#231f20"/>
          <path d="M38.8271,101.11792l1.29441,6.01837H39.3142l-.22342-1.17334H37.89207l-.22342,1.17334H36.8856l1.31015-6.01837Zm-.016,3.35236-.30368-2.187h-.016l-.47937,3.05726h.95875Z" transform="translate(28.06741 20.15839)" fill="#231f20"/>
          <path d="M44.61936,101.93988a1.15529,1.15529,0,0,0-.51138-.15155c-1.11818,0-1.12645,1.62854-1.12645,2.37885,0,.79827.064,2.299,1.15845,2.299a.98913.98913,0,0,0,.47938-.12012v.70264a1.13131,1.13131,0,0,1-.63908.16778c-1.62984,0-1.84552-1.73212-1.84552-2.99359,0-1.20526.1517-3.18482,1.78952-3.18482a1.23973,1.23973,0,0,1,.69508.17579Z" transform="translate(28.06741 20.15839)" fill="#231f20"/>
          <rect x="73.302" y="121.27649" width="0.79878" height="6.01831" fill="#231f20"/>
          <polygon points="77.225 121.276 77.225 121.971 75.875 121.971 75.875 123.863 77.081 123.863 77.081 124.557 75.875 124.557 75.875 126.6 77.225 126.6 77.225 127.295 75.076 127.295 75.076 121.276 77.225 121.276" fill="#231f20"/>
          <polygon points="78.527 123.064 78.647 125.084 78.647 127.295 77.848 127.295 77.848 121.276 78.615 121.276 80.021 125.85 80.037 125.834 79.845 123.423 79.845 121.276 80.644 121.276 80.644 127.295 79.901 127.295 78.495 122.657 78.479 122.673 78.527 123.064" fill="#231f20"/>
          <path d="M55.88471,101.93988a1.1574,1.1574,0,0,0-.51164-.15155c-1.11845,0-1.12619,1.62854-1.12619,2.37885,0,.79827.06372,2.299,1.15819,2.299a.99086.99086,0,0,0,.47964-.12012v.70264a1.13273,1.13273,0,0,1-.63936.16778c-1.62982,0-1.84552-1.73212-1.84552-2.99359,0-1.20526.15171-3.18482,1.78954-3.18482a1.24112,1.24112,0,0,1,.69534.17579Z" transform="translate(28.06741 20.15839)" fill="#231f20"/>
          <rect x="84.56709" y="121.27649" width="0.79904" height="6.01831" fill="#231f20"/>
          <path d="M59.75944,101.11792l1.29443,6.01837h-.80705l-.2237-1.17334H58.82468l-.224,1.17334h-.78279l1.31015-6.01837Zm-.01625,3.35236-.30342-2.187h-.016l-.47938,3.05726h.959Z" transform="translate(28.06741 20.15839)" fill="#231f20"/>
          <path d="M63.43473,102.04376a1.09959,1.09959,0,0,0-.67935-.25543.72289.72289,0,0,0-.71106.77435.97448.97448,0,0,0,.22369.65442l.60735.66272a2.23354,2.23354,0,0,1,.85478,1.764,1.44646,1.44646,0,0,1-1.41414,1.57257,1.40227,1.40227,0,0,1-.879-.28735v-.80658a1.30493,1.30493,0,0,0,.79106.3114c.49538,0,.70332-.39075.70332-.83795,0-1.19727-1.68608-1.437-1.68608-3.017a1.36308,1.36308,0,0,1,1.35042-1.5409,1.61592,1.61592,0,0,1,.84677.19977Z" transform="translate(28.06741 20.15839)" fill="#231f20"/>
          <path d="M20.67074,110.74414c.94275,0,2.01322.0639,2.01322,3.11316,0,2.77734-.92676,2.90546-2.35689,2.90546H19.776v-6.01862Zm-.096.67865v4.66126c1.31841.03973,1.26243-1.20527,1.26243-2.22675,0-.92609.088-2.51465-1.26243-2.43451" transform="translate(28.06741 20.15839)" fill="#231f20"/>
          <polygon points="53.716 130.902 53.716 131.597 52.365 131.597 52.365 133.489 53.572 133.489 53.572 134.183 52.365 134.183 52.365 136.226 53.716 136.226 53.716 136.921 51.566 136.921 51.566 130.902 53.716 130.902" fill="#231f20"/>
          <polygon points="56.776 130.902 56.776 136.226 58.118 136.226 58.118 136.921 55.977 136.921 55.977 130.902 56.776 130.902" fill="#231f20"/>
          <path d="M32.03985,110.74414l1.29442,6.01862h-.807l-.22369-1.17359H31.10509l-.22369,1.17359h-.783l1.31042-6.01862Zm-.016,3.3526-.30342-2.18732h-.01626l-.47938,3.05725h.95876Z" transform="translate(28.06741 20.15839)" fill="#231f20"/>
          <polygon points="65.716 130.902 65.716 131.597 64.365 131.597 64.365 133.489 65.572 133.489 65.572 134.183 64.365 134.183 64.365 136.226 65.716 136.226 65.716 136.921 63.567 136.921 63.567 130.902 65.716 130.902" fill="#231f20"/>
          <path d="M39.16624,110.74414c.94275,0,2.01349.0639,2.01349,3.11316,0,2.77734-.92676,2.90546-2.35689,2.90546h-.55138v-6.01862Zm-.096.67865v4.66126c1.3184.03973,1.26269-1.20527,1.26269-2.22675,0-.92609.08771-2.51465-1.26269-2.43451" transform="translate(28.06741 20.15839)" fill="#231f20"/>
          <path d="M42.79353,110.74408v4.41412c0,.7743.23169.93384.55935.93384.55136,0,.59909-.35132.60735-.84625v-4.50171H44.759v4.27026c0,.79029.008,1.82831-1.38214,1.82831-1.27042,0-1.38214-.86249-1.38214-1.94818v-4.15039Z" transform="translate(28.06741 20.15839)" fill="#231f20"/>
          <path d="M48.059,111.56635a1.15333,1.15333,0,0,0-.51138-.15156c-1.11871,0-1.12672,1.6283-1.12672,2.37836,0,.79822.064,2.29889,1.15846,2.29889a.99.99,0,0,0,.47964-.11987v.70294a1.13444,1.13444,0,0,1-.63936.16754c-1.62982,0-1.84552-1.73212-1.84552-2.99359,0-1.205.15171-3.18481,1.7898-3.18481a1.24211,1.24211,0,0,1,.69508.17553Z" transform="translate(28.06741 20.15839)" fill="#231f20"/>
          <path d="M50.16015,110.74414l1.29416,6.01862h-.80706l-.22369-1.17359H49.22512l-.22369,1.17359h-.783l1.31042-6.01862Zm-.016,3.3526-.30368-2.18732h-.016l-.47937,3.05725h.95876Z" transform="translate(28.06741 20.15839)" fill="#231f20"/>
          <path d="M54.31458,111.56635a1.1513,1.1513,0,0,0-.51138-.15156c-1.11845,0-1.12645,1.6283-1.12645,2.37836,0,.79822.064,2.29889,1.15845,2.29889a.989.989,0,0,0,.47938-.11987v.70294a1.133,1.133,0,0,1-.63908.16754c-1.6301,0-1.8458-1.73212-1.8458-2.99359,0-1.205.152-3.18481,1.7898-3.18481a1.24157,1.24157,0,0,1,.69508.17553Z" transform="translate(28.06741 20.15839)" fill="#231f20"/>
          <rect x="82.99699" y="130.90265" width="0.79904" height="6.01855" fill="#231f20"/>
          <path d="M59.68343,113.75342c0,1.08545-.016,3.08923-1.56584,3.08923-1.55011,0-1.5661-2.00378-1.5661-3.08923,0-1.08563.016-3.08917,1.5661-3.08917,1.54985,0,1.56584,2.00354,1.56584,3.08917m-2.28489,0c0,1.27722.0877,2.33862.71905,2.33862.63109,0,.71907-1.0614.71907-2.33862s-.088-2.33856-.71907-2.33856c-.63135,0-.71905,1.0614-.71905,2.33856" transform="translate(28.06741 20.15839)" fill="#231f20"/>
          <polygon points="89.253 132.69 89.373 134.71 89.373 136.921 88.574 136.921 88.574 130.902 89.341 130.902 90.747 135.476 90.763 135.46 90.571 133.05 90.571 130.902 91.37 130.902 91.37 136.921 90.627 136.921 89.221 132.284 89.205 132.299 89.253 132.69" fill="#231f20"/>
          <path d="M43.009,80.43738a27.18,27.18,0,0,0,5.74585-2.43207,36.7631,36.7631,0,0,1-15.64267-.54974c1.4024.94421,2.45821,1.658,2.45821,1.658A8.06524,8.06524,0,0,0,43.009,80.43738" transform="translate(28.06741 20.15839)" fill="#ffe3a7"/>
          <path d="M42.32059,61.61151A18.85643,18.85643,0,0,0,58.96494,52.007a37.18986,37.18986,0,0,0-2.80455-2.92725,15.38417,15.38417,0,0,1-13.80275,8.95545c-8.5352,0-15.45283-7.27289-15.45283-16.24726V30.05859c-6.675,7.56452-.59535,21.26276-.59535,21.26276-.21437.22028-.42579.45123-.63376.68854a18.8597,18.8597,0,0,0,16.64489,9.60162" transform="translate(28.06741 20.15839)" fill="#ffc425"/>
          <path d="M42.15418,53.48468a10.11122,10.11122,0,0,0,9.74271-8.43793A13.38613,13.38613,0,0,1,49.171,39.87622v2.16766c0,4.33838-3.0725,7.85621-6.863,7.85621-3.79129,0-6.86112-3.51783-6.86112-7.85621V23.24463c-1.14432.73889-2.19478,1.47693-3.129,2.17108V43.8551a10.03956,10.03956,0,0,0,9.83629,9.62958" transform="translate(28.06741 20.15839)" fill="#ffc425"/>
          <path d="M51.98678,27.61951V14.07343A38.86182,38.86182,0,0,0,49.171,10.19922V33.693a18.24369,18.24369,0,0,1,2.81575-6.07348" transform="translate(28.06741 20.15839)" fill="#ffc425"/>
          <path d="M40.56408,3.26355c3.68063,7.6189,2.14226,12.66827,0,15.67358V41.39026c0,2.15881.84143,2.99914,1.88391,2.99914a1.8796,1.8796,0,0,0,1.8831-1.87835V4.95972C41.28634,1.98853,38.758.00177,38.758.00177c.45406.72852.86092,1.43567,1.22858,2.12366Z" transform="translate(28.06741 20.15839)" fill="#ffc425"/>
          <path d="M42.175,70.65973A27.13218,27.13218,0,0,0,63.64509,60.25555a16.21294,16.21294,0,0,0-1.66689-4.02728,23.61074,23.61074,0,0,1-39.495.19122c-.45724.73835-.72812,1.22553-.72812,1.22553a12.23759,12.23759,0,0,0-1.06354,2.69073A27.33734,27.33734,0,0,0,42.175,70.65973" transform="translate(28.06741 20.15839)" fill="#ffc425"/>
          <path d="M48.75484,78.00531a81.22644,81.22644,0,0,0,9.739-6.39093,14.17308,14.17308,0,0,0,3.67745-3.36676,31.97622,31.97622,0,0,1-40.48709-.42114,15.77839,15.77839,0,0,0,4.62527,5.11139c.77506.469,4.32986,2.85272,6.80272,4.5177a36.76052,36.76052,0,0,0,15.64268.54974" transform="translate(28.06741 20.15839)" fill="#ffc425"/>
          <path d="M42.35764,58.03516a15.38408,15.38408,0,0,0,13.80275-8.95545c-.8753-.819-1.46133-1.28729-1.46133-1.28729a19.728,19.728,0,0,1-2.80214-2.74561,10.11128,10.11128,0,0,1-9.74271,8.43793,10.03957,10.03957,0,0,1-9.83629-9.62964V25.41571a51.39485,51.39485,0,0,0-4.64207,3.84863c-.27488.256-.5303.52149-.771.79425V41.7879c0,8.97437,6.91763,16.24726,15.45284,16.24726" transform="translate(28.06741 20.15839)" fill="#ffe3a7"/>
          <path d="M52.877,26.471c3.1658-3.3454,1.8999-7.95844-.89025-12.39758V27.61957A13.66952,13.66952,0,0,1,52.877,26.471" transform="translate(28.06741 20.15839)" fill="#ffe3a7"/>
          <path d="M49.171,39.87628V33.69312a12.61284,12.61284,0,0,0,0,6.18316" transform="translate(28.06741 20.15839)" fill="#ffe3a7"/>
          <path d="M42.30805,49.9c3.79048,0,6.863-3.51776,6.863-7.8562v-2.1676a12.613,12.613,0,0,1,0-6.18323V10.19922a64.57379,64.57379,0,0,0-4.83989-5.2395V42.51105A1.87965,1.87965,0,0,1,42.448,44.3894c-1.04248,0-1.88391-.84039-1.88391-2.9992V18.93707a12.09484,12.09484,0,0,1-3.931,3.56281q-.6091.37034-1.18619.74475V42.04382c0,4.33844,3.06983,7.8562,6.86113,7.8562" transform="translate(28.06741 20.15839)" fill="#ffe3a7"/>
          <path d="M42.20191,66.99274A23.67467,23.67467,0,0,0,61.9782,56.22821,27.44015,27.44015,0,0,0,58.9649,52.007a18.85646,18.85646,0,0,1-16.64435,9.60461,18.85971,18.85971,0,0,1-16.64488-9.60168,34.74563,34.74563,0,0,0-3.19247,4.40954A23.83125,23.83125,0,0,0,42.20191,66.99274" transform="translate(28.06741 20.15839)" fill="#ffe3a7"/>
          <path d="M62.17124,68.24756a9.15419,9.15419,0,0,0,1.47385-7.992,27.43451,27.43451,0,0,1-42.95356.08014,10.04527,10.04527,0,0,0,.99261,7.49079,31.97613,31.97613,0,0,0,40.4871.42108" transform="translate(28.06741 20.15839)" fill="#ffe3a7"/>
          <path d="M51.28985,81.50983a4.63387,4.63387,0,0,1-.61215-1.502,22.70946,22.70946,0,0,1-.05919-5.0813c.03039-.745-.0288-1.37414-.05733-2.092-.03307-.81237-.32741-1.498-.4034-2.24615-.23488-2.31519.22156-5.14819-.05171-7.63007a6.94327,6.94327,0,0,0-.196-2.09253c-.14317-.602-.39406-1.18713-.54283-1.81787a11.40255,11.40255,0,0,1-.13518-2.43316,14.05655,14.05655,0,0,1,.866-3.875,22.6742,22.6742,0,0,1,.28262,3.51007,15.50315,15.50315,0,0,0,.49564,3.08575,5.4539,5.4539,0,0,1,.13437,2.81275,3.46087,3.46087,0,0,0-.41058,1.68444l-.00507.95514c.26182.0791.41005-.32043.41005-.32043a.86781.86781,0,0,1,.16318-.76868l.19569.07855c-.08185,1.21033-.58362,1.34644-.58362,1.34644-.43432.09961-.17891.32574-.17891.32574.29276.11719,1.03395-.19574,1.03395-.19574.70627-.27807.57563-2.78.57563-2.78-.02106-.29376-.05919-1.83807-.05919-1.83807a14.98892,14.98892,0,0,0-.16318-4.34833,23.68319,23.68319,0,0,1-.23915-4.2196c-.00293-1.067.40526-3.18909-.41832-4.00818a7.93539,7.93539,0,0,0-1.57971-.76068c-.6924-.39343-1.47892-.47894-1.69487-1.39624a3.95339,3.95339,0,0,1,.30154-2.06592,4.68466,4.68466,0,0,0-.34767-2.84759,1.42615,1.42615,0,0,0-2.08041-.52021,1.72165,1.72165,0,0,0-.74413,1.00367c-.10852.41149.12717,1.24041-.26129,1.41564a2.92777,2.92777,0,0,0-.04613.85022c.09039.27625.36608.28022.45833.49915a2.34,2.34,0,0,1,.04265,1.56592c-.34126,1.0553-1.26084,1.20581-2.15132,1.72412l-.72681.32233A1.92939,1.92939,0,0,0,41.312,49.84979a27.59906,27.59906,0,0,0-.29167,3.83045c-.05865,1.53448-.61989,2.92834-.74653,4.47216a29.37646,29.37646,0,0,0-.0304,3.79828c-.01546.1377-.02986.26929-.04478.391a11.99937,11.99937,0,0,0-.09386,1.539c.00081.49835-.10318,1.01379.249,1.36724.25383.25464,1.06087.67865,1.37255.363-.43805-.549-.92569-.62732-.76918-1.48657.08024-.44428.27514-.49487.36473-.02954.06344.32947-.04667.65387.133.94531.44391-.28235.3154-2.11066.15437-2.55572-.13225-.36438-.3594-.55988-.38367-.96424a10.47315,10.47315,0,0,1,.01227-1.13812c.24928-.85742.73265-1.63733.959-2.49841.252-.95569-.24315-4.96894.96489-5.0824a18.848,18.848,0,0,1-.18557,8.05414,12.978,12.978,0,0,0-.56736,3.94232,40.61358,40.61358,0,0,0,.15969,4.83069c.08452,1.612-.18981,3.16113-.19516,4.79523-.00479,1.751.48578,3.43493.445,5.16571A3.37111,3.37111,0,0,1,42.299,81.2962c-.49431.7298-1.14325.4997-1.58344.98554-.93475,1.03662,1.56157,1.02917,2.01.99.389-.03333,1.08459.06628,1.37334-.27808.33567-.402.0464-1.238-.00773-1.66766a17.07788,17.07788,0,0,1,.01386-2.07654c0-.56067.10878-1.3443.1813-2.05658a12.13842,12.13842,0,0,0,.08638-3.28576,7.36567,7.36567,0,0,1,.15384-1.36933c.004-.0144.00853-.02826.0136-.04132L44.537,72.484c.13251-.65735.31967-1.3006.466-1.93665.24717-1.07129.38153-2.194.55884-3.27514a10.31009,10.31009,0,0,1,.83025-2.97443l-.0112.08923c.25648,1.502.9001,3.0586,1.091,4.5683.1901,1.49213.62895,2.89478.73854,4.39514A36.2135,36.2135,0,0,0,49.16171,77.78c.31648,1.60956-.221,3.4472.29461,5.02319.27329.83374.81345.68378,1.59331.6579.59454-.01916,1.28.06555,1.10751-.69385-.09544-.4187-.64413-.87817-.86729-1.25744M46.26572,64.02l.00426-.02313.012.02612Z" transform="translate(28.06741 20.15839)" fill="#fff"/>
          <path d="M38.1155,65.03638c-.43432.09991-.17837.32684-.17837.32684.293.1167,1.03421-.19659,1.03421-.19659.70573-.27778.57536-2.77912.57536-2.77912-.02161-.29382-.05867-1.83868-.05867-1.83868a14.97767,14.97767,0,0,0-.16423-4.34912,23.67535,23.67535,0,0,1-.23836-4.21906c-.00426-1.04761.0208-3.07269-.75719-3.92187a1.26757,1.26757,0,0,0,.156-.68293,2.39012,2.39012,0,0,1-2.1924-2.231,18.1253,18.1253,0,0,0-.42338-2.88172,2.75352,2.75352,0,0,0-.43726-1.1842c-.028-.06262-.05572-.12335-.08557-.17584a1.66194,1.66194,0,0,0-.21249-.29377l.03758-.02a1.39364,1.39364,0,0,0-.68733-.48877,1.55758,1.55758,0,0,0-1.8322.53613,4.46982,4.46982,0,0,0-.63241,2.45746l-.00347.03381c-.08931.55829-.13864,1.14478-.205,1.75983a6.65034,6.65034,0,0,1-.26929,1.11841c-.024.07006-.05546.13958-.08584.20965a2.59682,2.59682,0,0,1-1.865,1.16,1.25771,1.25771,0,0,0,.16343.69495,3.20084,3.20084,0,0,0-.77,1.69989,27.844,27.844,0,0,0-.62841,3.82275c-.05786,1.53394-.61908,2.92835-.74572,4.47162a29.29408,29.29408,0,0,0-.03013,3.79932c-.016.13635-.03066.26929-.04479.39075a12.04472,12.04472,0,0,0-.09519,1.5382c.0008.49939-.10238,1.01374.24955,1.36774.25436.25464,1.06247.67816,1.37254.362-.437-.54736-.92542-.62652-.76918-1.48578.08-.44372.27568-.49518.3658-.03009.06292.33-.04746.65442.13144.94586.44551-.2821.3162-2.11035.1549-2.556-.1317-.36358-.35806-.55938-.38419-.96447a11.11628,11.11628,0,0,1,.01306-1.13764c.249-.85766.47511-2.17053.70174-3.03192.24769-.94189.00933-5.33594,1.16111-5.58075a5.04869,5.04869,0,0,0,.47778,1.41358,10.64589,10.64589,0,0,1-.81532,6.81689,14.72645,14.72645,0,0,0-.6524,4.73847,41.81813,41.81813,0,0,0,.45724,4.88977c.08426,1.61175-.1893,3.162-.19383,4.79577-.00533,1.7508.48551,3.436.44472,5.165a3.36565,3.36565,0,0,1-.51991,1.70758c-.49456.72931-1.14351.49786-1.58316.98554-.93476,1.03668,1.56184,1.02789,2.01029.99029.38926-.03436,1.08406.06635,1.372-.27887.33594-.40137.04639-1.23773-.0072-1.66687a17.07068,17.07068,0,0,1,.01439-2.07623c0-.56256.10826-1.34485.18184-2.05786a12.2047,12.2047,0,0,0,.08505-3.28473,7.3764,7.3764,0,0,1,.15437-1.37018l.0136-.04126-.0032-.012c.1317-.65821.3194-1.30011.46605-1.93671.24742-1.0705.38179-2.19452.55882-3.27539a11.28538,11.28538,0,0,1,.75586-2.83563,46.31485,46.31485,0,0,1,1.15471,4.51794c.189,1.49317.62735,2.89581.73773,4.39545a36.2749,36.2749,0,0,0,.95155,4.4295c.317,1.61011-.22155,3.44776.2949,5.0235.27326.83423.8121.684,1.5941.65894.593-.01941,1.27975.065,1.10672-.69544-.09519-.41845-.64415-.87713-.86785-1.2572a4.64853,4.64853,0,0,1-.61215-1.50116,22.71211,22.71211,0,0,1-.05891-5.0813c.02986-.74426-.02826-1.37494-.05759-2.09228-.032-.81183-.32741-1.49689-.4026-2.24646-.23542-2.31409.377-5.0307.10371-7.51209a8.09663,8.09663,0,0,0-.35219-2.20965c-.14291-.60279-.39406-1.18744-.5423-1.81794a9.86293,9.86293,0,0,1-.13517-2.43341,16.52519,16.52519,0,0,1,.2962-3.49115,2.39331,2.39331,0,0,0,.37567-.5141,1.91478,1.91478,0,0,0,.1693-.53,37.555,37.555,0,0,1,.30768,4.17066,15.41038,15.41038,0,0,0,.49591,3.08545,5.46947,5.46947,0,0,1,.13383,2.81219,3.465,3.465,0,0,0-.41086,1.685l-.00532.95544c.26127.07911.41-.321.41-.321a.86221.86221,0,0,1,.1645-.76764l.19437.07776c-.08212,1.21033-.58362,1.34589-.58362,1.34589" transform="translate(28.06741 20.15839)" fill="#fff"/>
        </g>
        <g clip-path="url(#clip-path-7)">
          <rect x="-1.08045" y="59.0107" width="69.00193" height="59.92269" transform="translate(-17.89999 56.87609) rotate(-36.05882)" fill="url(#linear-gradient-6)"/>
        </g>
      </g>
    </g>
  </g>
</svg>
