<svg xmlns="http://www.w3.org/2000/svg" xmlns:xlink="http://www.w3.org/1999/xlink" width="98.7319" height="105.34615" viewBox="0 0 98.7319 105.34615">
  <defs>
    <clipPath id="clip-path" transform="translate(13.13944 -3.27607)">
      <rect width="72.452" height="108.62201" fill="none"/>
    </clipPath>
    <clipPath id="clip-path-2" transform="translate(13.13944 -3.27607)">
      <path d="M36.257,16.718c-.546,0-1.097.013-1.649.038a35.35142,35.35142,0,1,0,1.651-.038h-.002" fill="none"/>
    </clipPath>
    <linearGradient id="linear-gradient" x1="-106.457" y1="554.53217" x2="-105.457" y2="554.53217" gradientTransform="matrix(20.39124, 0, 0, -20.39124, 2189.08492, 11360.11198)" gradientUnits="userSpaceOnUse">
      <stop offset="0" stop-color="#fff"/>
      <stop offset="0.6024" stop-color="#ffdb79"/>
      <stop offset="1" stop-color="#ffc425"/>
    </linearGradient>
    <clipPath id="clip-path-4" transform="translate(13.13944 -3.27607)">
      <path d="M7.106,72.097l.006.004-.011-.002-.204.442a35.79512,35.79512,0,0,0,3.954,4.621l1.311-2.835c1.011.373,2.028.71,3.048,1.004l-1.875,4.052a35.76782,35.76782,0,0,0,4.628,3.188l2.803-6.063q1.677.24,3.354.341l-3.327,7.199a37.9779,37.9779,0,0,0,5.19,1.977l4.274-9.238a42.31288,42.31288,0,0,0,4.272-.578,8.70376,8.70376,0,0,1,.401-3.334c.408-.858.962-1.754,1.483-2.618A36.871,36.871,0,0,1,11.239,68.11c-.632-.292-1.253-.603-1.862-.924Z" fill="none"/>
    </clipPath>
    <linearGradient id="linear-gradient-2" x1="-106.457" y1="554.51432" x2="-105.457" y2="554.51432" gradientTransform="matrix(79.59606, 0, 0, -79.59606, 8469.56609, 44213.76106)" gradientUnits="userSpaceOnUse">
      <stop offset="0" stop-color="#fff"/>
      <stop offset="1" stop-color="#005baa"/>
    </linearGradient>
    <clipPath id="clip-path-5" transform="translate(13.13944 -3.27607)">
      <path d="M14.907,60.176c-.632-.292-1.248-.612-1.848-.949l-2.34,5.058c.607.323,1.224.642,1.858.935a33.74557,33.74557,0,0,0,26.102.966c.208-.368.422-.734.649-1.095A65.39123,65.39123,0,0,0,43.514,57.3a28.24682,28.24682,0,0,1-28.607,2.876" fill="none"/>
    </clipPath>
    <linearGradient id="linear-gradient-3" x1="-106.457" y1="554.52402" x2="-105.457" y2="554.52402" gradientTransform="matrix(79.59608, 0.00001, 0.00001, -79.59608, 8460.62117, 44201.21765)" xlink:href="#linear-gradient-2"/>
    <clipPath id="clip-path-6" transform="translate(13.13944 -3.27607)">
      <path d="M44.513,42.678a19.52314,19.52314,0,0,1-25.919,9.528,19.87589,19.87589,0,0,1-1.84-.975l-2.328,5.036c.598.343,1.212.664,1.846.957a25.06178,25.06178,0,0,0,30.307-7.366c.461-1.171.902-2.349,1.285-3.543a20.74065,20.74065,0,0,0-.357-10.11Z" fill="none"/>
    </clipPath>
    <linearGradient id="linear-gradient-4" x1="-106.457" y1="554.53976" x2="-105.457" y2="554.53976" gradientTransform="matrix(79.59649, -0.00002, -0.00002, -79.59649, 8450.56526, 44188.62803)" xlink:href="#linear-gradient-2"/>
    <clipPath id="clip-path-7" transform="translate(13.13944 -3.27607)">
      <path d="M36.51,39.209a10.80148,10.80148,0,0,1-14.342,5.268,10.99955,10.99955,0,0,1-1.803-1.054l-2.28,4.924A16.32419,16.32419,0,0,0,41.6,41.374l3.993-8.628c-.078-.094-.153-.187-.235-.278a12.15608,12.15608,0,0,0-4.435-2.802Z" fill="none"/>
    </clipPath>
    <linearGradient id="linear-gradient-5" x1="-106.457" y1="554.5319" x2="-105.457" y2="554.5319" gradientTransform="matrix(79.59737, -0.00004, -0.00004, -79.59737, 8443.49214, 44180.67341)" xlink:href="#linear-gradient-2"/>
    <clipPath id="clip-path-8" transform="translate(13.13944 -3.27607)">
      <path d="M31.048,30.222,28.646,35.418a2.07854,2.07854,0,0,1-3.774-1.743L21.811,40.29a7.61134,7.61134,0,0,0,11.878-2.576l4.047-8.75c-.319-.026-.646-.04-.981-.04a13.841,13.841,0,0,0-5.707,1.298" fill="none"/>
    </clipPath>
    <linearGradient id="linear-gradient-6" x1="-106.457" y1="554.5291" x2="-105.457" y2="554.5291" gradientTransform="matrix(79.59704, -0.00003, -0.00003, -79.59704, 8437.25176, 44174.93046)" xlink:href="#linear-gradient-2"/>
  </defs>
  <g id="Layer_2" data-name="Layer 2">
    <g id="Layer_1-2" data-name="Layer 1">
      <g>
        <polygon points="17.358 91.62 17.358 92.227 16.178 92.227 16.178 93.885 17.232 93.885 17.232 94.492 16.178 94.492 16.178 96.281 17.358 96.281 17.358 96.889 15.479 96.889 15.479 91.62 17.358 91.62" fill="#231f20"/>
        <g clip-path="url(#clip-path)">
          <path d="M6.3866,95.7063a.96193.96193,0,0,0-.596-.224.63327.63327,0,0,0-.621.677.85225.85225,0,0,0,.197.576l.529.578a1.96235,1.96235,0,0,1,.75,1.546,1.26764,1.26764,0,0,1-1.237,1.377,1.22029,1.22029,0,0,1-.77-.253v-.705a1.14844,1.14844,0,0,0,.692.273c.433,0,.616-.344.616-.735,0-1.048-1.475-1.258-1.475-2.643a1.19111,1.19111,0,0,1,1.179-1.347,1.41141,1.41141,0,0,1,.74.174Z" transform="translate(13.13944 -3.27607)" fill="#231f20"/>
          <path d="M9.2781,95.61572a.99859.99859,0,0,0-.447-.133c-.978,0-.985,1.426-.985,2.083,0,.698.057,2.013,1.013,2.013a.85021.85021,0,0,0,.419-.106v.617a1.00564,1.00564,0,0,1-.559.146c-1.425,0-1.613-1.517-1.613-2.621,0-1.057.133-2.788,1.565-2.788a1.07508,1.07508,0,0,1,.607.153Z" transform="translate(13.13944 -3.27607)" fill="#231f20"/>
          <path d="M10.5178,94.89612v3.864c0,.678.201.818.488.818.483,0,.525-.307.532-.74v-3.942h.698v3.738c0,.692.007,1.602-1.21,1.602-1.111,0-1.209-.756-1.209-1.706v-3.634Z" transform="translate(13.13944 -3.27607)" fill="#231f20"/>
          <polygon points="28.102 91.62 28.102 92.227 26.92 92.227 26.92 93.885 27.974 93.885 27.974 94.492 26.92 94.492 26.92 96.281 28.102 96.281 28.102 96.889 26.221 96.889 26.221 91.62 28.102 91.62" fill="#231f20"/>
          <polygon points="29.344 91.62 29.344 96.281 30.519 96.281 30.519 96.889 28.645 96.889 28.645 91.62 29.344 91.62" fill="#231f20"/>
          <path d="M19.1195,94.89581l1.132,5.269h-.706l-.195-1.027h-1.05l-.194,1.027h-.685l1.145-5.269Zm-.014,2.934-.266-1.913h-.014l-.419,2.676h.839Z" transform="translate(13.13944 -3.27607)" fill="#231f20"/>
          <path d="M22.9276,94.89664c.825,0,1.762.055,1.762,2.725,0,2.433-.812,2.543-2.063,2.543h-.483v-5.268Zm-.083.593v4.082c1.153.034,1.104-1.055,1.104-1.95,0-.811.076-2.202-1.104-2.132" transform="translate(13.13944 -3.27607)" fill="#231f20"/>
          <polygon points="40.422 91.62 40.422 92.227 39.24 92.227 39.24 93.885 40.296 93.885 40.296 94.492 39.24 94.492 39.24 96.281 40.422 96.281 40.422 96.889 38.541 96.889 38.541 91.62 40.422 91.62" fill="#231f20"/>
          <path d="M31.3017,95.61572a1.00678,1.00678,0,0,0-.449-.133c-.976,0-.985,1.426-.985,2.083,0,.698.057,2.013,1.014,2.013a.85957.85957,0,0,0,.42-.106v.617a1.01,1.01,0,0,1-.559.146c-1.427,0-1.615-1.517-1.615-2.621,0-1.057.132-2.788,1.565-2.788a1.08581,1.08581,0,0,1,.609.153Z" transform="translate(13.13944 -3.27607)" fill="#231f20"/>
          <rect x="44.97744" y="91.61992" width="0.69901" height="5.26901" fill="#231f20"/>
          <polygon points="48.41 91.62 48.41 92.227 47.23 92.227 47.23 93.885 48.284 93.885 48.284 94.492 47.23 94.492 47.23 96.281 48.41 96.281 48.41 96.889 46.531 96.889 46.531 91.62 48.41 91.62" fill="#231f20"/>
          <polygon points="49.548 93.185 49.653 94.954 49.653 96.889 48.955 96.889 48.955 91.62 49.626 91.62 50.857 95.624 50.871 95.611 50.701 93.5 50.701 91.62 51.4 91.62 51.4 96.889 50.751 96.889 49.521 92.829 49.507 92.843 49.548 93.185" fill="#231f20"/>
          <path d="M41.154,95.61572a1.00618,1.00618,0,0,0-.447-.133c-.978,0-.985,1.426-.985,2.083,0,.698.057,2.013,1.013,2.013a.8502.8502,0,0,0,.419-.106v.617a1.00567,1.00567,0,0,1-.559.146c-1.425,0-1.615-1.517-1.615-2.621,0-1.057.132-2.788,1.567-2.788a1.07921,1.07921,0,0,1,.607.153Z" transform="translate(13.13944 -3.27607)" fill="#231f20"/>
          <rect x="54.83244" y="91.61992" width="0.69901" height="5.26901" fill="#231f20"/>
          <path d="M44.54529,94.89581l1.132,5.269h-.708l-.195-1.027h-1.047l-.197,1.027h-.685l1.145-5.269Zm-.016,2.934-.264-1.913h-.015l-.42,2.676h.839Z" transform="translate(13.13944 -3.27607)" fill="#231f20"/>
          <path d="M47.7574,95.7063a.95364.95364,0,0,0-.593-.224.63085.63085,0,0,0-.621.677.86067.86067,0,0,0,.195.576l.531.578a1.96253,1.96253,0,0,1,.747,1.546,1.266,1.266,0,0,1-1.238,1.377,1.21977,1.21977,0,0,1-.767-.253v-.705a1.14365,1.14365,0,0,0,.692.273c.433,0,.614-.344.614-.735,0-1.048-1.473-1.258-1.473-2.643a1.19023,1.19023,0,0,1,1.18-1.347,1.41141,1.41141,0,0,1,.74.174Z" transform="translate(13.13944 -3.27607)" fill="#231f20"/>
          <path d="M51.66631,95.7063a.96418.96418,0,0,0-.596-.224.63146.63146,0,0,0-.621.677.86581.86581,0,0,0,.195.576l.532.578a1.96252,1.96252,0,0,1,.747,1.546,1.26661,1.26661,0,0,1-1.238,1.377,1.21785,1.21785,0,0,1-.767-.253v-.705a1.14127,1.14127,0,0,0,.692.273c.433,0,.614-.344.614-.735,0-1.048-1.473-1.258-1.473-2.643a1.19,1.19,0,0,1,1.179-1.347,1.415,1.415,0,0,1,.741.174Z" transform="translate(13.13944 -3.27607)" fill="#231f20"/>
          <path d="M55.12419,97.53c0,.951-.012,2.706-1.368,2.706-1.357,0-1.37-1.755-1.37-2.706s.013-2.704,1.37-2.704c1.356,0,1.368,1.753,1.368,2.704m-1.998,0c0,1.118.075,2.048.63,2.048.552,0,.628-.93.628-2.048s-.076-2.047-.628-2.047c-.555,0-.63.929-.63,2.047" transform="translate(13.13944 -3.27607)" fill="#231f20"/>
          <path d="M57.8846,95.61572a.99483.99483,0,0,0-.447-.133c-.978,0-.985,1.426-.985,2.083,0,.698.056,2.013,1.013,2.013a.85852.85852,0,0,0,.419-.106v.617a1.00341,1.00341,0,0,1-.557.146c-1.427,0-1.615-1.517-1.615-2.621,0-1.057.133-2.788,1.565-2.788a1.0731,1.0731,0,0,1,.607.153Z" transform="translate(13.13944 -3.27607)" fill="#231f20"/>
          <rect x="71.56243" y="91.61992" width="0.69901" height="5.26901" fill="#231f20"/>
          <path d="M61.27419,94.89581l1.134,5.269h-.706l-.197-1.027h-1.047l-.197,1.027h-.683l1.143-5.269Zm-.012,2.934-.266-1.913h-.013l-.42,2.676h.839Z" transform="translate(13.13944 -3.27607)" fill="#231f20"/>
          <polygon points="76.707 91.62 76.707 96.281 77.88 96.281 77.88 96.889 76.008 96.889 76.008 91.62 76.707 91.62" fill="#231f20"/>
          <polygon points="80.201 91.62 80.201 92.227 79.021 92.227 79.021 93.885 80.075 93.885 80.075 94.492 79.021 94.492 79.021 96.281 80.201 96.281 80.201 96.889 78.32 96.889 78.32 91.62 80.201 91.62" fill="#231f20"/>
          <path d="M69.2287,95.7063a.96259.96259,0,0,0-.593-.224.63381.63381,0,0,0-.624.677.86582.86582,0,0,0,.195.576l.532.578a1.95351,1.95351,0,0,1,.747,1.546,1.26612,1.26612,0,0,1-1.235,1.377,1.22029,1.22029,0,0,1-.77-.253v-.705a1.14846,1.14846,0,0,0,.692.273c.433,0,.614-.344.614-.735,0-1.048-1.473-1.258-1.473-2.643a1.19184,1.19184,0,0,1,1.18-1.347,1.42318,1.42318,0,0,1,.742.174Z" transform="translate(13.13944 -3.27607)" fill="#231f20"/>
          <polygon points="31.337 100.007 31.979 102.446 31.992 102.446 32.105 101.767 32.551 100.007 33.301 100.007 32.322 103.004 32.322 105.277 31.624 105.277 31.624 103.004 30.581 100.007 31.337 100.007" fill="#231f20"/>
          <polygon points="35.865 100.007 35.865 102.06 36.921 102.06 36.921 100.007 37.62 100.007 37.62 105.277 36.921 105.277 36.921 102.67 35.865 102.67 35.865 105.277 35.166 105.277 35.166 100.007 35.865 100.007" fill="#231f20"/>
          <path d="M26.03169,103.283v3.864c0,.677.204.818.488.818.484,0,.525-.308.532-.741v-3.941h.699v3.739c0,.691.009,1.6-1.21,1.6-1.109,0-1.208-.755-1.208-1.705v-3.634Z" transform="translate(13.13944 -3.27607)" fill="#231f20"/>
          <polygon points="42.512 100.007 43.259 103.808 43.273 103.808 43.296 103.592 43.504 102.326 43.958 100.007 44.574 100.007 45.062 105.277 44.377 105.277 44.251 103.313 44.21 102.333 44.196 101.642 44.182 101.642 44.063 102.397 43.518 105.277 43.037 105.277 42.358 101.642 42.345 101.642 42.143 105.277 41.476 105.277 41.909 100.007 42.512 100.007" fill="#231f20"/>
          <path d="M33.8176,103.28333l1.132,5.27h-.706l-.195-1.029h-1.049l-.195,1.029h-.685l1.146-5.27Zm-.016,2.935-.263-1.915h-.014l-.42,2.676h.839Z" transform="translate(13.13944 -3.27607)" fill="#231f20"/>
          <polygon points="49.143 101.572 49.248 103.341 49.248 105.277 48.55 105.277 48.55 100.007 49.221 100.007 50.451 104.01 50.465 103.996 50.295 101.886 50.295 100.007 50.997 100.007 50.997 105.277 50.346 105.277 49.116 101.216 49.102 101.229 49.143 101.572" fill="#231f20"/>
          <rect x="51.84844" y="100.00695" width="0.69901" height="5.26999" fill="#231f20"/>
          <path d="M41.04239,103.28342c.824,0,1.764.055,1.764,2.724,0,2.433-.814,2.546-2.065,2.546h-.481v-5.27Zm-.083.593v4.081c1.152.036,1.104-1.054,1.104-1.95,0-.81.076-2.201-1.104-2.131" transform="translate(13.13944 -3.27607)" fill="#231f20"/>
          <path d="M44.81819,103.28333l1.132,5.27h-.706l-.195-1.029h-1.049l-.195,1.029h-.685l1.145-5.27Zm-.014,2.935-.266-1.915h-.013l-.42,2.676h.839Z" transform="translate(13.13944 -3.27607)" fill="#231f20"/>
          <path d="M47.19218,103.28342c.824,0,1.764.055,1.764,2.724,0,2.433-.814,2.546-2.065,2.546h-.481v-5.27Zm-.083.593v4.081c1.152.036,1.104-1.054,1.104-1.95,0-.81.078-2.201-1.104-2.131" transform="translate(13.13944 -3.27607)" fill="#231f20"/>
          <polygon points="64.687 100.007 64.687 100.614 63.507 100.614 63.507 102.271 64.561 102.271 64.561 102.879 63.507 102.879 63.507 104.667 64.687 104.667 64.687 105.277 62.806 105.277 62.806 100.007 64.687 100.007" fill="#231f20"/>
          <path d="M53.7146,104.0932a.96757.96757,0,0,0-.593-.223.63234.63234,0,0,0-.624.678.85975.85975,0,0,0,.195.573l.532.579a1.95443,1.95443,0,0,1,.747,1.545,1.26589,1.26589,0,0,1-1.237,1.377,1.22081,1.22081,0,0,1-.768-.251v-.706a1.14734,1.14734,0,0,0,.692.272c.433,0,.614-.342.614-.733,0-1.049-1.473-1.258-1.473-2.642a1.19375,1.19375,0,0,1,1.182-1.35,1.4259,1.4259,0,0,1,.74.175Z" transform="translate(13.13944 -3.27607)" fill="#231f20"/>
        </g>
        <g clip-path="url(#clip-path-2)">
          <rect x="-5.70838" y="10.23935" width="83.86977" height="84.5524" transform="translate(-8.99268 75.01762) rotate(-79.23312)" fill="url(#linear-gradient)"/>
        </g>
        <g clip-path="url(#clip-path)">
          <path d="M51.7854,85.0228c.133-2.76-6.152-5.289-6.152-5.289-3.141-.946-.964-4.292-.964-4.292a14.89313,14.89313,0,0,1,3.572-3.65s16.89-15.721,11.93-37.111l-2.749-6.857s-3.163-2.436-2.356-6.135c0,0,3.762-11.493-4.779-14.48,0,0-14.708-7.209-28.27.845,0,0-13.77,13.242,6.881,19.951l1.723,3.75s17.658-5.539,16.417,10.734c0,0-1.432,12.224-13.028,29.421,0,0-.335,8.921-2.448,13.967l.271.874.848.017s6.019-7.106,11.862-1.774c0,0,4.802-2.196,7.242.029" transform="translate(13.13944 -3.27607)" fill="#fff"/>
          <path d="M36.8387,15.17432a2.95306,2.95306,0,0,1-3.056,2.782,2.94652,2.94652,0,0,1-3.294-2.492,2.93986,2.93986,0,0,1,3.053-2.779,2.94657,2.94657,0,0,1,3.297,2.489" transform="translate(13.13944 -3.27607)" fill="#005baa"/>
          <path d="M35.8071,14.71478a.92666.92666,0,1,1-.965-.90295.93215.93215,0,0,1,.965.90295" transform="translate(13.13944 -3.27607)" fill="#fff"/>
          <path d="M3.9373,67.71613c-3.657-5.99-3.712-17.606-3.712-17.606a37.85921,37.85921,0,0,1,14.987-27.403,16.56443,16.56443,0,0,1,9.584-17.161,31.38114,31.38114,0,0,1,19.827-1.238,17.81739,17.81739,0,0,1,7.531,3.561s-2.482-1.944-9.692,2.988a5.00369,5.00369,0,0,1-5.657-.457s-5.16-5.023-11.197-3.551c0,0-7.871,2.511-6.739,11.785,0,0,1.934,8.701,10.189,7.183,0,0,2.919.126,1.847,4.46a12.49025,12.49025,0,0,1,14.444,2.188c4.798,5.262,2.507,13.847,2.507,13.847-.825,2.568-1.911,5.056-2.91,7.59a66.57552,66.57552,0,0,1-5.627,11.186c-.885,1.412-1.597,2.896-2.413,4.316-.637,1.111-1.441,2.324-1.984,3.468a9.826,9.826,0,0,0-.415,3.547,36.5078,36.5078,0,0,1-1.478,7.763c-.22.715-.456,1.441-.708,2.162,1.517-1.895,3.272-2.116,4.805-2.753,0,0-1.964.638-4.147,3.766a36.281,36.281,0,0,1-29.042-19.641" transform="translate(13.13944 -3.27607)" fill="#005baa"/>
          <path d="M45.3439,15.598a3.1408,3.1408,0,0,0,6.176-.282,3.14131,3.14131,0,0,0-6.176.282" transform="translate(13.13944 -3.27607)" fill="#005baa"/>
          <path d="M49.9595,14.431a.92813.92813,0,1,1-.969-.9.93921.93921,0,0,1,.969.9" transform="translate(13.13944 -3.27607)" fill="#fff"/>
          <path d="M50.0672,85.663s-2.899-3.583-7.231-.36a9.42576,9.42576,0,0,1,7.231.36" transform="translate(13.13944 -3.27607)" fill="#005baa"/>
          <path d="M44.7977,16.39642s-2.45-1.56494-6.304-.072c0,0-2.44,2.255,1.266,4.05,0,0,3.896,1.39,2.078,3.876,0,0,6.159-2.446,2.96-7.854" transform="translate(13.13944 -3.27607)" fill="#005baa"/>
          <path d="M46.2019,74.73621a48.27543,48.27543,0,0,0,12.455-17.531c5.378-14.192,2.527-23.135-.068-27.605a11.84493,11.84493,0,0,0-1.005-1.552c-.132-.184-.261-.355-.383-.512a6.78732,6.78732,0,0,1-1.357-4.884c2.707-11.601-3.556-14.675-3.556-14.675,5.388,5.182,2.779,13.712,2.779,13.712-.012.052-.021.101-.032.152l-.012-.012a5.62155,5.62155,0,0,0,.732,4.278v.001s.876,1.579,1.724,3.442c9.517,24.049-11.115,43.248-11.115,43.248-5.945,4.69-1.919,7.084-1.919,7.084a8.83727,8.83727,0,0,0,2.472,1.354c4.638,1.643,4.868,3.787,4.868,3.787,1.382-2.543-4.804-5.296-4.804-5.296-4.725-1.996-.779-4.991-.779-4.991" transform="translate(13.13944 -3.27607)" fill="#005baa"/>
        </g>
        <g clip-path="url(#clip-path-4)">
          <rect x="7.29019" y="59.36177" width="28.72959" height="34.48752" transform="translate(-44.25314 63.90464) rotate(-67.41611)" fill="url(#linear-gradient-2)"/>
        </g>
        <g clip-path="url(#clip-path-5)">
          <rect x="15.29966" y="45.84216" width="23.63369" height="34.87173" transform="translate(-28.58352 60.73809) rotate(-67.41611)" fill="url(#linear-gradient-3)"/>
        </g>
        <g clip-path="url(#clip-path-6)">
          <rect x="13.10739" y="28.19208" width="37.3472" height="42.03791" transform="translate(-12.72205 56.38012) rotate(-67.41609)" fill="url(#linear-gradient-4)"/>
        </g>
        <g clip-path="url(#clip-path-7)">
          <rect x="15.72418" y="24.19348" width="32.22966" height="34.41003" transform="matrix(0.38404, -0.92332, 0.92332, 0.38404, -5.47285, 51.62143)" fill="url(#linear-gradient-5)"/>
        </g>
        <g clip-path="url(#clip-path-8)">
          <rect x="20.12681" y="25.96768" width="19.29336" height="20.18476" transform="translate(-1.81607 46.42602) rotate(-67.41608)" fill="url(#linear-gradient-6)"/>
        </g>
      </g>
    </g>
  </g>
</svg>
