<svg xmlns="http://www.w3.org/2000/svg" xmlns:xlink="http://www.w3.org/1999/xlink" width="132.4941" height="132.49413" viewBox="0 0 132.4941 132.49413">
  <defs>
    <clipPath id="clip-path" transform="translate(14.55257 17.15155)">
      <rect width="102.561" height="102.54201" fill="none"/>
    </clipPath>
    <clipPath id="clip-path-2" transform="translate(14.55257 17.15155)">
      <path d="M18.225,49.096A33.4695,33.4695,0,1,0,51.694,15.625,33.46974,33.46974,0,0,0,18.225,49.096" fill="none"/>
    </clipPath>
    <linearGradient id="linear-gradient" x1="-126.357" y1="343.562" x2="-125.357" y2="343.562" gradientTransform="matrix(-48.35838, 0.00001, 0.00001, 48.35838, -6033.31701, -16565.00478)" gradientUnits="userSpaceOnUse">
      <stop offset="0" stop-color="#005baa"/>
      <stop offset="0.01657" stop-color="#005baa"/>
      <stop offset="0.55249" stop-color="#fff"/>
      <stop offset="1" stop-color="#005baa"/>
    </linearGradient>
  </defs>
  <g id="Layer_2" data-name="Layer 2">
    <g id="Layer_1-2" data-name="Layer 1">
      <g>
        <g clip-path="url(#clip-path)">
          <path d="M99.4547,49.1394a47.755,47.755,0,1,1-47.755-47.755,47.75481,47.75481,0,0,1,47.755,47.755" transform="translate(14.55257 17.15155)" fill="#fff"/>
        </g>
        <g clip-path="url(#clip-path-2)">
          <rect x="4.60631" y="2.00749" width="94.17634" height="94.17606" transform="translate(-4.46542 75.32647) rotate(-50.83958)" fill="url(#linear-gradient)"/>
        </g>
        <g clip-path="url(#clip-path)">
          <path d="M14.3339,36.03461a3.1705,3.1705,0,0,0-1.662,2.098c-.633,2.635,2.119,3.981,4.182,4.477,2.188.526,5.127.55,5.737-1.986a3.8008,3.8008,0,0,0-.547-2.972l5.173,1.56a7.4131,7.4131,0,0,1-.065,3.22c-.998,4.15-5.004,6.92-11.417,5.379-8.401-2.021-8.431-8.129-7.839-10.59a7.18516,7.18516,0,0,1,1.069-2.477Z" transform="translate(14.55257 17.15155)" fill="#ffc425"/>
          <path d="M33.31889,31.84824l-2.131-1.325-2.282,2.657,1.598,1.945-3.497,4.074-11.61-16.069,4.147-4.83,17.289,9.455Zm-5.634-3.525-3.761-2.488c-1.011-.665-2.009-1.388-3.004-2.073l-.033.038c.811.899,1.659,1.796,2.437,2.734l2.928,3.458Z" transform="translate(14.55257 17.15155)" fill="#ffc425"/>
          <polygon points="51.626 45.644 43.551 28.14 48.286 25.956 54.455 39.326 58.007 37.688 59.913 41.82 51.626 45.644" fill="#ffc425"/>
          <rect x="45.02827" y="5.34634" width="5.21575" height="19.27593" transform="translate(13.16652 22.61973) rotate(-6.4758)" fill="#ffc425"/>
          <path d="M58.26289,5.13852l4.026,1.173c5.694,1.659,7.719,6.135,6.088,11.732-2.488,8.542-8.092,7.762-11.136,6.875l-4.368-1.273Zm.918,15.499c2.29.64,3.512-2.093,4.019-3.835.587-2.013,1.009-4.926-1.273-5.591Z" transform="translate(14.55257 17.15155)" fill="#ffc425"/>
          <path d="M71.69379,33.60452l1.487-2.022-2.47-2.482-2.065,1.441-3.787-3.805,16.928-10.318,4.491,4.513-10.779,16.496Zm3.954-5.341,2.775-3.555c.743-.956,1.541-1.894,2.302-2.832l-.036-.037c-.959.739-1.92,1.514-2.915,2.216l-3.676,2.649Z" transform="translate(14.55257 17.15155)" fill="#ffc425"/>
          <path d="M93.5545,31.88412l1.149,4.032c1.626,5.704-1.089,9.8-6.694,11.398-8.556,2.438-10.878-2.722-11.746-5.771l-1.248-4.377Zm-12.635,9.023c.676,2.28,3.642,1.86,5.387,1.363,2.016-.575,4.707-1.767,4.055-4.053Z" transform="translate(14.55257 17.15155)" fill="#ffc425"/>
          <path d="M14.3339,36.03461a3.1705,3.1705,0,0,0-1.662,2.098c-.633,2.635,2.119,3.981,4.182,4.477,2.188.526,5.127.55,5.737-1.986a3.8008,3.8008,0,0,0-.547-2.972l5.173,1.56a7.4131,7.4131,0,0,1-.065,3.22c-.998,4.15-5.004,6.92-11.417,5.379-8.401-2.021-8.431-8.129-7.839-10.59a7.18516,7.18516,0,0,1,1.069-2.477Z" transform="translate(14.55257 17.15155)" fill="none" stroke="#fff" stroke-width="2.557"/>
          <path d="M33.31889,31.84824l-2.131-1.325-2.282,2.657,1.598,1.945-3.497,4.074-11.61-16.069,4.147-4.83,17.289,9.455Zm-5.634-3.525-3.761-2.488c-1.011-.665-2.009-1.388-3.004-2.073l-.033.038c.811.899,1.659,1.796,2.437,2.734l2.928,3.458Z" transform="translate(14.55257 17.15155)" fill="none" stroke="#fff" stroke-width="2.557"/>
          <polygon points="51.626 45.644 43.551 28.14 48.286 25.956 54.455 39.326 58.007 37.688 59.913 41.82 51.626 45.644" fill="none" stroke="#fff" stroke-width="2.557"/>
          <rect x="45.02827" y="5.34634" width="5.21575" height="19.27593" transform="translate(13.16652 22.61973) rotate(-6.4758)" fill="none" stroke="#fff" stroke-width="2.557"/>
          <path d="M58.26289,5.13852l4.026,1.173c5.694,1.659,7.719,6.135,6.088,11.732-2.488,8.542-8.092,7.762-11.136,6.875l-4.368-1.273Zm.918,15.499c2.29.64,3.512-2.093,4.019-3.835.587-2.013,1.009-4.926-1.273-5.591Z" transform="translate(14.55257 17.15155)" fill="none" stroke="#fff" stroke-width="2.557"/>
          <path d="M71.69379,33.60452l1.487-2.022-2.47-2.482-2.065,1.441-3.787-3.805,16.928-10.318,4.491,4.513-10.779,16.496Zm3.954-5.341,2.775-3.555c.743-.956,1.541-1.894,2.302-2.832l-.036-.037c-.959.739-1.92,1.514-2.915,2.216l-3.676,2.649Z" transform="translate(14.55257 17.15155)" fill="none" stroke="#fff" stroke-width="2.557"/>
          <path d="M93.5545,31.88412l1.149,4.032c1.626,5.704-1.089,9.8-6.694,11.398-8.556,2.438-10.878-2.722-11.746-5.771l-1.248-4.377Zm-12.635,9.023c.676,2.28,3.642,1.86,5.387,1.363,2.016-.575,4.707-1.767,4.055-4.053Z" transform="translate(14.55257 17.15155)" fill="none" stroke="#fff" stroke-width="2.557"/>
          <path d="M45.582,64.64972c-.444.951-.996,5.376-1.73,5.735a14.05071,14.05071,0,0,1,.044,1.93c-.138.812-.758,1.412-.982,2.148-.394,1.295.113,2.459-1.413,3.126-1.68.735-.464-.639-.114-1.594a13.99954,13.99954,0,0,0,.386-4.003c.066-1.485.78-2.77.81-4.296a9.70076,9.70076,0,0,1,.749-4.292v-.122a19.64958,19.64958,0,0,0,.345-2.638c-.026-1.191-.452-2.327-.474-3.555-.582,1.342-.31,1.312-1.246,2.439-.629.758-.521,1.766-1.136,2.476-.557.645-1.675,1.037-2.005-.052-.183-.607.345-.483.735-.799a4.45049,4.45049,0,0,0,.685-.916l.02-.063a6.13,6.13,0,0,1,.903-1.949c.487-.751.435-1.241.86-1.996.529-.94.376-1.456,1.313-1.966,1.405-.763,1.698-.404,1.514-2.225-.079-.773-.247-2.001.691-2.545,0,0,1.194-1.058,1.828.967,0,0,.46,1.594-.058,1.778a.572.572,0,0,0-.346.553l-.057.675a.64578.64578,0,0,0,.403.552l1.095.429a2.43523,2.43523,0,0,1,.748,1.841,9.11216,9.11216,0,0,0,.62,3.084,17.79631,17.79631,0,0,1,1.393,2.926c.23.603.75,2.817-.34,1.719-.263-.264-.244-1.119-.417-1.468a3.979,3.979,0,0,0-.868-1.093,6.91045,6.91045,0,0,1-1.784-2.94,9.68308,9.68308,0,0,1,.044,1.427c.067.779-.162,1.965.373,2.602a7.04129,7.04129,0,0,1,.116.921,13.79,13.79,0,0,1-.922,5.03,6.13071,6.13071,0,0,0-.404,2.208,16.90236,16.90236,0,0,1-.575,3.988c-.404,1.288,0,1.534,0,1.534a4.97207,4.97207,0,0,0,1.203,1.244.24815.24815,0,0,0-.002.028c.016,1.165-1.894.576-2.354.017-.605-.736-.253-2.672-.231-3.67.055-2.38.683-6.883.753-9.256,0,0,.006-.143-.173.061" transform="translate(14.55257 17.15155)" fill="#fff"/>
          <path d="M68.02169,64.97672c.376.806.844,4.557,1.466,4.862a11.65048,11.65048,0,0,0-.036,1.635c.116.689.642,1.197.832,1.821.333,1.098-.096,2.085,1.198,2.65,1.424.625.393-.543.097-1.35a11.85171,11.85171,0,0,1-.328-3.394c-.057-1.259-.661-2.35-.686-3.642a8.24571,8.24571,0,0,0-.636-3.639v-.104a16.36549,16.36549,0,0,1-.292-2.236c.022-1.01.382-1.973.402-3.013.492,1.138.262,1.113,1.055,2.067.533.643.442,1.497.963,2.1.474.545,1.421.878,1.7-.045.156-.514-.292-.41-.623-.678a3.7674,3.7674,0,0,1-.58-.776l-.017-.053a5.16528,5.16528,0,0,0-.767-1.652c-.412-.637-.367-1.052-.728-1.692-.448-.798-.319-1.236-1.113-1.667-1.19-.646-1.44-.343-1.283-1.888.067-.654.21-1.695-.586-2.157,0,0-1.012-.896-1.55.82,0,0-.391,1.353.049,1.509a.48334.48334,0,0,1,.293.467l.049.573a.5465.5465,0,0,1-.342.468l-.927.364a2.0602,2.0602,0,0,0-.635,1.56,7.73125,7.73125,0,0,1-.525,2.615,15.119,15.119,0,0,0-1.181,2.48c-.196.511-.636,2.388.288,1.458.223-.224.207-.949.354-1.245a3.36718,3.36718,0,0,1,.735-.927,5.84,5.84,0,0,0,1.513-2.492,8.26672,8.26672,0,0,0-.039,1.21c-.056.66.138,1.666-.316,2.205a5.99888,5.99888,0,0,0-.098.782,11.72478,11.72478,0,0,0,.782,4.264,5.20312,5.20312,0,0,1,.342,1.872,14.34226,14.34226,0,0,0,.489,3.38c.342,1.093,0,1.301,0,1.301a4.20914,4.20914,0,0,1-1.021,1.054.19535.19535,0,0,0,.003.024c-.014.988,1.605.49,1.995.015.513-.625.215-2.267.195-3.111-.047-2.018-.579-5.835-.638-7.847,0,0-.005-.121.147.052" transform="translate(14.55257 17.15155)" fill="#fff"/>
          <path d="M40.4752,61.99112a3.791,3.791,0,0,1-.459-.843l-.009-.056a13.19506,13.19506,0,0,0-.982-2.831c-.313-.684-.836-1.345-1.098-2.023-.326-.844-.14-1.25-.852-1.793-.116-.088-.22-.162-.317-.227-.083-.364-.205-.731-.319-1.204-.169-.703.118-1.778-.128-2.389a1.11674,1.11674,0,0,0-.785-.63c-.316-.173-.845-.234-1.332.784,0,0-.565,1.253-.16,1.473a.48841.48841,0,0,1,.221.501l-.031.563a.52729.52729,0,0,1-.396.403l-.952.208a1.9862,1.9862,0,0,0-.832,1.418,7.46948,7.46948,0,0,1-.869,2.46,14.44178,14.44178,0,0,0-1.488,2.229c-.26.465-.946,2.22.08,1.46.247-.183.331-.89.515-1.155a3.23231,3.23231,0,0,1,.842-.786,7.14235,7.14235,0,0,0,1.565-2.37,4.97,4.97,0,0,1,.115.824c-.025.237-.049.434-.071.53-.514,2.235-1.271,4.362-.753,6.683a4.71927,4.71927,0,0,1,.191,2.294,14.18881,14.18881,0,0,0,.01,3.362c.183,1.114-.178,1.263-.178,1.263a4.00274,4.00274,0,0,1-1.137.866v.023c-.15.96,1.492.726,1.937.325.583-.527.519-2.167.616-2.992.233-1.969.239-5.224.457-7.189,0,0,.012-.117.136.074.255.842.196,4.022.758,4.415a11.95073,11.95073,0,0,0,.187,1.628,13.89267,13.89267,0,0,0,.112,1.855c.173,1.12-.379,2.012.8,2.763,1.299.827.457-.465.28-1.298a11.6469,11.6469,0,0,1,.147-3.349c.118-1.234-.32-2.387-.167-3.647a8.3299,8.3299,0,0,0-.065-3.438,1.936,1.936,0,0,0,1.776-.88,2.009,2.009,0,0,1-.162-.25c.037.052.076.105.119.16l-.624-1.497c.004.028.007.055.01.082-.02-.066-.04-.134-.06-.203l.05.121c-.028-.28-.037-.583-.087-.957-.067-.496-.158-.923-.227-1.351.5,1.009,1.326,2.122,1.821,2.936.431.707.224,1.524.649,2.191.383.604,1.259,1.074,1.657.22.222-.476-.228-.443-.511-.756" transform="translate(14.55257 17.15155)" fill="#fff"/>
          <path d="M63.87659,64.0816a4.41856,4.41856,0,0,1-.583-.949l-.014-.062a15.2534,15.2534,0,0,0-1.312-3.223c-.406-.774-1.053-1.506-1.398-2.276-.431-.959-.239-1.442-1.1-2.024-.14-.095-.265-.173-.382-.244-.119-.417-.283-.834-.443-1.377-.239-.805.029-2.073-.294-2.766a1.28159,1.28159,0,0,0-.95-.677c-.379-.18-.997-.214-1.5,1.002,0,0-.582,1.494-.096,1.723a.56087.56087,0,0,1,.286.566l-.002.658a.61263.61263,0,0,1-.437.493l-1.092.31a2.32654,2.32654,0,0,0-.88,1.704,8.78348,8.78348,0,0,1-.862,2.917,17.05111,17.05111,0,0,0-1.593,2.692c-.274.558-.965,2.646.181,1.692.276-.23.331-1.058.528-1.378a3.8193,3.8193,0,0,1,.931-.971,8.38024,8.38024,0,0,0,1.674-2.86,5.56214,5.56214,0,0,1,.184.95c-.014.275-.03.506-.049.617-.463,2.633-1.212,5.158-.47,7.819a5.4899,5.4899,0,0,1,.361,2.653,16.437,16.437,0,0,0,.215,3.905c.281,1.284-.129,1.481-.129,1.481a4.76039,4.76039,0,0,1-1.27,1.084l.001.027c-.114,1.124,1.779.74,2.27.244.647-.652.473-2.556.536-3.52.151-2.304-.039-6.085.095-8.383,0,0,.007-.139.161.075.348.96.472,4.661,1.15,5.078a13.48292,13.48292,0,0,0,.315,1.878,16.43128,16.43128,0,0,0,.242,2.149c.271,1.288-.318,2.365,1.099,3.156,1.56.871.502-.572.245-1.528a13.68723,13.68723,0,0,1-.032-3.901c.064-1.442-.515-2.753-.415-4.227a9.70116,9.70116,0,0,0-.283-3.99,2.26528,2.26528,0,0,0,2.009-1.145,2.40686,2.40686,0,0,1-.203-.279c.047.057.095.117.149.177l-.816-1.697c.005.033.01.065.016.096-.027-.077-.055-.154-.081-.231l.065.135c-.05-.321-.079-.673-.16-1.106-.108-.571-.24-1.061-.345-1.553.641,1.138,1.669,2.374,2.295,3.286.543.793.352,1.755.885,2.5.483.676,1.529,1.162,1.94.143.229-.568-.292-.499-.642-.843" transform="translate(14.55257 17.15155)" fill="#fff"/>
          <path d="M29.1885,59.08972a10.56527,10.56527,0,0,0-.958-1.799,5.09763,5.09763,0,0,1-.426-1.894,1.437,1.437,0,0,0-.515-1.131l-.752-.263a.39655.39655,0,0,1-.278-.339l.04-.416a.35659.35659,0,0,1,.238-.338c.356-.113.04-1.093.04-1.093-.437-1.244-1.257-.594-1.257-.594-.645.333-.53,1.089-.476,1.564.11.968-.027.933-.693,1.211-.304-.055-.872-.207-.996-.595l-.935-1.16a5.62733,5.62733,0,0,1-.084-2.231s.595-.714.17-.802c0,0-1.105-.268-.935.713,0,0-.425,2.677.085,3.211a18.96642,18.96642,0,0,0,1.784,1.785,5.52083,5.52083,0,0,1,.578,1.027c.054.695.207,1.498.223,2.128a10.81176,10.81176,0,0,1-.237,1.62v.075a5.40562,5.40562,0,0,0-.516,2.638c-.019.937-.51,1.726-.556,2.639a7.71058,7.71058,0,0,1-.266,2.459c-.24.586-1.077,1.432.079.98,1.049-.411.701-1.127.972-1.922.154-.451.58-.821.675-1.319a7.6066,7.6066,0,0,0-.031-1.185c.505-.221.885-2.94,1.19-3.524.122-.125.119-.037.119-.037-.048,1.458-.481,4.224-.518,5.687-.015.612-.257,1.802.159,2.254.316.344,1.629.705,1.617-.011l.003-.017a3.2747,3.2747,0,0,1-.828-.765s-.277-.15,0-.941a9.35873,9.35873,0,0,0,.396-2.45,3.40212,3.40212,0,0,1,.278-1.357,7.70072,7.70072,0,0,0,.633-3.091,3.85444,3.85444,0,0,0-.08-.565c-.367-.392-.209-1.121-.255-1.599a5.36939,5.36939,0,0,0-.032-.877,4.18561,4.18561,0,0,0,1.228,1.806,2.53137,2.53137,0,0,1,.596.672c.119.214.106.741.287.901.749.674.392-.685.234-1.055" transform="translate(14.55257 17.15155)" fill="#fff"/>
          <path d="M82.99979,49.47263c.171-.982-.934-.713-.934-.713-.426.089.26.867.26.867a13.11853,13.11853,0,0,1-.109,3.342l-1.039,1.227a2.82656,2.82656,0,0,1-1.322.697l-.223-.055a.44033.44033,0,0,1-.295-.359l.003-.471a.4148.4148,0,0,1,.204-.408c.333-.161-.053-1.241-.053-1.241-.336-.877-.761-.856-1.022-.729a.89181.89181,0,0,0-.657.483c-.228.499-.055,1.412-.226,1.992-.113.389-.23.69-.314.989-.081.05-.169.106-.264.174-.597.414-.469.764-.772,1.453-.243.552-.694,1.076-.979,1.631a11.3371,11.3371,0,0,0-.927,2.314l-.01.044a3.134,3.134,0,0,1-.409.681c-.242.247-.6.196-.447.606.274.735.996.389,1.332-.094.373-.535.251-1.228.63-1.797.435-.653,1.152-1.539,1.602-2.356-.077.355-.173.707-.25,1.118-.059.311-.083.563-.119.795l.046-.098c-.02.057-.038.112-.057.168.003-.024.008-.047.011-.07l-.574,1.22c.037-.045.071-.087.103-.128a1.9228,1.9228,0,0,1-.142.2,1.54089,1.54089,0,0,0,1.37.835,7.3159,7.3159,0,0,0-.227,2.87c.057,1.063-.351,2.004-.32,3.042a10.34013,10.34013,0,0,1-.054,2.81c-.185.687-.922,1.721.155,1.101.979-.564.584-1.341.781-2.268a12.2077,12.2077,0,0,0,.183-1.546,10.1726,10.1726,0,0,0,.232-1.351c.469-.297.584-2.961.831-3.651.108-.153.112-.054.112-.054.072,1.656-.089,4.379-.006,6.039.037.694-.098,2.064.341,2.536.333.359,1.628.645,1.559-.165l.001-.019a3.27183,3.27183,0,0,1-.862-.787s-.28-.144-.077-1.067a12.46129,12.46129,0,0,0,.18-2.812,4.11482,4.11482,0,0,1,.271-1.907c.531-1.914.037-3.735-.258-5.633-.014-.081-.022-.246-.03-.446l-.035-1.314c.241-1.3.726-1.374.726-1.374a10.011,10.011,0,0,0,2.137-2.052c.511-.536-.057-4.269-.057-4.269" transform="translate(14.55257 17.15155)" fill="#fff"/>
          <path d="M14.91109,36.8876c-.212,3.543,1.521,7.792,5.156,7.534,4.219-.3,4.699-5.648,6.625-8.472,5.557-8.144,16.083-12.475,25.77-12.521,11.661-.056,18.355,4.445,24.796,13.63,1.917,2.733,2.202,8.458,6.229,8.896,6.948.756,5.287-9.461,1.911-12.426-3.768-3.309-7.993-5.758-11.508-9.506-1.624-1.734-3.182-3.788-5.189-5.136-4.996-3.358-13.43-4.113-19.269-4.791-6.662-.774-15.579,1.585-21.101,5.444-4.037,2.821-5.669,7.142-8.132,11.099" transform="translate(14.55257 17.15155)" fill="#fff"/>
          <path d="M14.3339,36.03461a3.1705,3.1705,0,0,0-1.662,2.098c-.633,2.635,2.119,3.981,4.182,4.477,2.188.526,5.127.55,5.737-1.986a3.8008,3.8008,0,0,0-.547-2.972l5.173,1.56a7.4131,7.4131,0,0,1-.065,3.22c-.998,4.15-5.004,6.92-11.417,5.379-8.401-2.021-8.431-8.129-7.839-10.59a7.18516,7.18516,0,0,1,1.069-2.477Z" transform="translate(14.55257 17.15155)" fill="#ffc425"/>
          <path d="M33.31889,31.84824l-2.131-1.325-2.282,2.657,1.598,1.945-3.497,4.074-11.61-16.069,4.147-4.83,17.289,9.455Zm-5.634-3.525-3.761-2.488c-1.011-.665-2.009-1.388-3.004-2.073l-.033.038c.811.899,1.659,1.796,2.437,2.734l2.928,3.458Z" transform="translate(14.55257 17.15155)" fill="#ffc425"/>
          <polygon points="51.626 45.644 43.551 28.14 48.286 25.956 54.455 39.326 58.007 37.688 59.913 41.82 51.626 45.644" fill="#ffc425"/>
          <rect x="45.02827" y="5.34634" width="5.21575" height="19.27593" transform="translate(13.16652 22.61973) rotate(-6.4758)" fill="#ffc425"/>
          <path d="M58.26289,5.13852l4.026,1.173c5.694,1.659,7.719,6.135,6.088,11.732-2.488,8.542-8.092,7.762-11.136,6.875l-4.368-1.273Zm.918,15.499c2.29.64,3.512-2.093,4.019-3.835.587-2.013,1.009-4.926-1.273-5.591Z" transform="translate(14.55257 17.15155)" fill="#ffc425"/>
          <path d="M71.69379,33.60452l1.487-2.022-2.47-2.482-2.065,1.441-3.787-3.805,16.928-10.318,4.491,4.513-10.779,16.496Zm3.954-5.341,2.775-3.555c.743-.956,1.541-1.894,2.302-2.832l-.036-.037c-.959.739-1.92,1.514-2.915,2.216l-3.676,2.649Z" transform="translate(14.55257 17.15155)" fill="#ffc425"/>
          <path d="M93.5545,31.88412l1.149,4.032c1.626,5.704-1.089,9.8-6.694,11.398-8.556,2.438-10.878-2.722-11.746-5.771l-1.248-4.377Zm-12.635,9.023c.676,2.28,3.642,1.86,5.387,1.363,2.016-.575,4.707-1.767,4.055-4.053Z" transform="translate(14.55257 17.15155)" fill="#ffc425"/>
          <path d="M14.3339,36.03461a3.1705,3.1705,0,0,0-1.662,2.098c-.633,2.635,2.119,3.981,4.182,4.477,2.188.526,5.127.55,5.737-1.986a3.8008,3.8008,0,0,0-.547-2.972l5.173,1.56a7.4131,7.4131,0,0,1-.065,3.22c-.998,4.15-5.004,6.92-11.417,5.379-8.401-2.021-8.431-8.129-7.839-10.59a7.18516,7.18516,0,0,1,1.069-2.477Z" transform="translate(14.55257 17.15155)" fill="#ffc425"/>
          <path d="M33.31889,31.84824l-2.131-1.325-2.282,2.657,1.598,1.945-3.497,4.074-11.61-16.069,4.147-4.83,17.289,9.455Zm-5.634-3.525-3.761-2.488c-1.011-.665-2.009-1.388-3.004-2.073l-.033.038c.811.899,1.659,1.796,2.437,2.734l2.928,3.458Z" transform="translate(14.55257 17.15155)" fill="#ffc425"/>
          <polygon points="51.626 45.644 43.551 28.14 48.286 25.956 54.455 39.326 58.007 37.688 59.913 41.82 51.626 45.644" fill="#ffc425"/>
          <rect x="45.02827" y="5.34634" width="5.21575" height="19.27593" transform="translate(13.16652 22.61973) rotate(-6.4758)" fill="#ffc425"/>
          <path d="M58.26289,5.13852l4.026,1.173c5.694,1.659,7.719,6.135,6.088,11.732-2.488,8.542-8.092,7.762-11.136,6.875l-4.368-1.273Zm.918,15.499c2.29.64,3.512-2.093,4.019-3.835.587-2.013,1.009-4.926-1.273-5.591Z" transform="translate(14.55257 17.15155)" fill="#ffc425"/>
          <path d="M71.69379,33.60452l1.487-2.022-2.47-2.482-2.065,1.441-3.787-3.805,16.928-10.318,4.491,4.513-10.779,16.496Zm3.954-5.341,2.775-3.555c.743-.956,1.541-1.894,2.302-2.832l-.036-.037c-.959.739-1.92,1.514-2.915,2.216l-3.676,2.649Z" transform="translate(14.55257 17.15155)" fill="#ffc425"/>
          <path d="M93.5545,31.88412l1.149,4.032c1.626,5.704-1.089,9.8-6.694,11.398-8.556,2.438-10.878-2.722-11.746-5.771l-1.248-4.377Zm-12.635,9.023c.676,2.28,3.642,1.86,5.387,1.363,2.016-.575,4.707-1.767,4.055-4.053Z" transform="translate(14.55257 17.15155)" fill="#ffc425"/>
          <path d="M37.493,34.51962a.66676.66676,0,0,0-.511-.237c-.571,0-.711.63-.711,1.077,0,.474.14,1.076.689,1.076a.79869.79869,0,0,0,.582-.258l-.065,1.136a1.57618,1.57618,0,0,1-.662.145c-.899,0-1.663-.684-1.663-2.072,0-1.82,1.248-2.126,1.781-2.126a1.51487,1.51487,0,0,1,.56.097Z" transform="translate(14.55257 17.15155)" fill="none" stroke="#005baa" stroke-linecap="round" stroke-linejoin="round" stroke-width="0.449"/>
          <path d="M39.4464,33.26013c1.115,0,1.55,1.109,1.55,2.099,0,.991-.435,2.1-1.55,2.1-1.114,0-1.55-1.109-1.55-2.1C37.8964,34.36914,38.33239,33.26013,39.4464,33.26013Zm0,3.176c.415,0,.431-.823.431-1.077,0-.253-.016-1.076-.431-1.076s-.43.823-.43,1.076C39.0164,35.61313,39.03139,36.43613,39.4464,36.43613Z" transform="translate(14.55257 17.15155)" fill="none" stroke="#005baa" stroke-linecap="round" stroke-linejoin="round" stroke-width="0.449"/>
          <path d="M44.2962,37.3887l-.102-2.551h-.011c-.049.296-.086.592-.14.888l-.312,1.663h-.894l-.382-2.551h-.011c-.005.301,0,.597-.016.899l-.092,1.652h-1.178l.474-4.058h1.366l.313,2.158h.011c.032-.253.058-.5.107-.754l.264-1.404h1.351l.393,4.058Z" transform="translate(14.55257 17.15155)" fill="none" stroke="#005baa" stroke-linecap="round" stroke-linejoin="round" stroke-width="0.449"/>
          <path d="M45.71758,37.38831v-4.058h1.001c.957,0,1.694.312,1.694,1.378,0,1.055-.645,1.378-1.598,1.351v1.329Zm1.178-3.186-.081.005v.937a.42046.42046,0,0,0,.49-.452C47.30459,34.43332,47.16459,34.2023,46.89559,34.2023Z" transform="translate(14.55257 17.15155)" fill="none" stroke="#005baa" stroke-linecap="round" stroke-linejoin="round" stroke-width="0.449"/>
          <path d="M50.43758,37.389l-.609-1.69-.01.01c.005.199.016.399.016.598v1.082h-1.098v-4.058h1.061c.952,0,1.641.279,1.641,1.35a1.02346,1.02346,0,0,1-.63,1.018l.818,1.69Zm-.533-2.18a.46986.46986,0,0,0,.446-.517.44336.44336,0,0,0-.516-.49v1.002Z" transform="translate(14.55257 17.15155)" fill="none" stroke="#005baa" stroke-linecap="round" stroke-linejoin="round" stroke-width="0.449"/>
          <path d="M53.28939,33.26013c1.114,0,1.551,1.109,1.551,2.099,0,.991-.437,2.1-1.551,2.1s-1.55-1.109-1.55-2.1C51.73939,34.36914,52.17538,33.26013,53.28939,33.26013Zm0,3.176c.415,0,.431-.823.431-1.077,0-.253-.016-1.076-.431-1.076-.414,0-.431.823-.431,1.076C52.85838,35.61313,52.87539,36.43613,53.28939,36.43613Z" transform="translate(14.55257 17.15155)" fill="none" stroke="#005baa" stroke-linecap="round" stroke-linejoin="round" stroke-width="0.449"/>
          <path d="M58.13909,37.3887l-.102-2.551h-.011c-.05.296-.087.592-.14.888l-.313,1.663h-.893l-.382-2.551h-.01c-.006.301,0,.597-.017.899l-.091,1.652h-1.179l.474-4.058h1.366l.313,2.158h.011c.032-.253.059-.5.106-.754l.265-1.404h1.351l.392,4.058Z" transform="translate(14.55257 17.15155)" fill="none" stroke="#005baa" stroke-linecap="round" stroke-linejoin="round" stroke-width="0.449"/>
          <rect x="74.11257" y="50.48157" width="1.09801" height="4.05801" stroke-width="0.449" stroke="#005baa" stroke-linecap="round" stroke-linejoin="round" fill="none"/>
          <path d="M61.0781,36.02213a.927.927,0,0,0,.694.452.29737.29737,0,0,0,.323-.269.31721.31721,0,0,0-.087-.227.85839.85839,0,0,0-.183-.156,2.61271,2.61271,0,0,1-.543-.517,1.17683,1.17683,0,0,1-.22-.71,1.273,1.273,0,0,1,1.238-1.335,1.72018,1.72018,0,0,1,.78.205v1.233a.89389.89389,0,0,0-.647-.437.27274.27274,0,0,0-.284.248.34381.34381,0,0,0,.107.226,1.8338,1.8338,0,0,0,.199.167,2.01965,2.01965,0,0,1,.538.495,1.15041,1.15041,0,0,1,.199.705,1.29078,1.29078,0,0,1-1.291,1.357,2.17626,2.17626,0,0,1-.823-.167Z" transform="translate(14.55257 17.15155)" fill="none" stroke="#005baa" stroke-linecap="round" stroke-linejoin="round" stroke-width="0.449"/>
          <path d="M65.02309,33.26013c1.114,0,1.55,1.109,1.55,2.099,0,.991-.436,2.1-1.55,2.1s-1.551-1.109-1.551-2.1C63.47208,34.36914,63.90908,33.26013,65.02309,33.26013Zm0,3.176c.415,0,.43-.823.43-1.077,0-.253-.015-1.076-.43-1.076s-.431.823-.431,1.076C64.59208,35.61313,64.60809,36.43613,65.02309,36.43613Z" transform="translate(14.55257 17.15155)" fill="none" stroke="#005baa" stroke-linecap="round" stroke-linejoin="round" stroke-width="0.449"/>
          <path d="M44.37319,43.668l-.08-.522h-.737l-.092.522h-1.13l.974-4.058h1.34l.862,4.058Zm-.209-1.383-.118-.942c-.033-.253-.054-.512-.081-.765h-.011c-.032.253-.059.512-.103.765l-.15.942Z" transform="translate(14.55257 17.15155)" fill="none" stroke="#005baa" stroke-linecap="round" stroke-linejoin="round" stroke-width="0.449"/>
          <path d="M47.96929,40.7991a.67.67,0,0,0-.511-.237c-.571,0-.711.63-.711,1.077,0,.474.14,1.076.689,1.076a.79861.79861,0,0,0,.581-.258l-.064,1.136a1.57618,1.57618,0,0,1-.662.145c-.899,0-1.663-.684-1.663-2.072,0-1.82,1.249-2.127,1.781-2.127a1.512,1.512,0,0,1,.56.098Z" transform="translate(14.55257 17.15155)" fill="none" stroke="#005baa" stroke-linecap="round" stroke-linejoin="round" stroke-width="0.449"/>
          <path d="M50.71951,40.7991a.67.67,0,0,0-.511-.237c-.571,0-.711.63-.711,1.077,0,.474.14,1.076.69,1.076a.802.802,0,0,0,.581-.258l-.065,1.136a1.57617,1.57617,0,0,1-.662.145c-.899,0-1.663-.684-1.663-2.072,0-1.82,1.249-2.127,1.781-2.127a1.51212,1.51212,0,0,1,.56.098Z" transform="translate(14.55257 17.15155)" fill="none" stroke="#005baa" stroke-linecap="round" stroke-linejoin="round" stroke-width="0.449"/>
          <rect x="65.79957" y="56.76157" width="1.099" height="4.05801" stroke-width="0.449" stroke="#005baa" stroke-linecap="round" stroke-linejoin="round" fill="none"/>
          <path d="M54.29369,39.53952c1.113,0,1.55,1.109,1.55,2.099,0,.991-.437,2.099-1.55,2.099-1.114,0-1.551-1.108-1.551-2.099C52.74268,40.64853,53.17968,39.53952,54.29369,39.53952Zm0,3.176c.414,0,.43-.823.43-1.077,0-.253-.016-1.076-.43-1.076-.415,0-.431.823-.431,1.076C53.86268,41.89252,53.87868,42.71552,54.29369,42.71552Z" transform="translate(14.55257 17.15155)" fill="none" stroke="#005baa" stroke-linecap="round" stroke-linejoin="round" stroke-width="0.449"/>
          <path d="M56.24709,39.60992h1.044l.878,2.444.01-.012c-.042-.468-.124-.931-.124-1.399v-1.033h1.055v4.058h-1.055l-.818-2.341-.01.011c.027.382.075.758.075,1.14v1.19h-1.055Z" transform="translate(14.55257 17.15155)" fill="none" stroke="#005baa" stroke-linecap="round" stroke-linejoin="round" stroke-width="0.449"/>
          <path d="M37.493,34.51962a.66676.66676,0,0,0-.511-.237c-.571,0-.711.63-.711,1.077,0,.474.14,1.076.689,1.076a.79869.79869,0,0,0,.582-.258l-.065,1.136a1.57618,1.57618,0,0,1-.662.145c-.899,0-1.663-.684-1.663-2.072,0-1.82,1.248-2.126,1.781-2.126a1.51487,1.51487,0,0,1,.56.097Z" transform="translate(14.55257 17.15155)" fill="none" stroke="#005baa" stroke-width="1.794"/>
          <path d="M39.4464,33.26013c1.115,0,1.55,1.109,1.55,2.099,0,.991-.435,2.1-1.55,2.1-1.114,0-1.55-1.109-1.55-2.1C37.8964,34.36914,38.33239,33.26013,39.4464,33.26013Zm0,3.176c.415,0,.431-.823.431-1.077,0-.253-.016-1.076-.431-1.076s-.43.823-.43,1.076C39.0164,35.61313,39.03139,36.43613,39.4464,36.43613Z" transform="translate(14.55257 17.15155)" fill="none" stroke="#005baa" stroke-width="1.794"/>
          <path d="M44.2962,37.3887l-.102-2.551h-.011c-.049.296-.086.592-.14.888l-.312,1.663h-.894l-.382-2.551h-.011c-.005.301,0,.597-.016.899l-.092,1.652h-1.178l.474-4.058h1.366l.313,2.158h.011c.032-.253.058-.5.107-.754l.264-1.404h1.351l.393,4.058Z" transform="translate(14.55257 17.15155)" fill="none" stroke="#005baa" stroke-width="1.794"/>
          <path d="M45.71758,37.38831v-4.058h1.001c.957,0,1.694.312,1.694,1.378,0,1.055-.645,1.378-1.598,1.351v1.329Zm1.178-3.186-.081.005v.937a.42046.42046,0,0,0,.49-.452C47.30459,34.43332,47.16459,34.2023,46.89559,34.2023Z" transform="translate(14.55257 17.15155)" fill="none" stroke="#005baa" stroke-width="1.794"/>
          <path d="M50.43758,37.389l-.609-1.69-.01.01c.005.199.016.399.016.598v1.082h-1.098v-4.058h1.061c.952,0,1.641.279,1.641,1.35a1.02346,1.02346,0,0,1-.63,1.018l.818,1.69Zm-.533-2.18a.46986.46986,0,0,0,.446-.517.44336.44336,0,0,0-.516-.49v1.002Z" transform="translate(14.55257 17.15155)" fill="none" stroke="#005baa" stroke-width="1.794"/>
          <path d="M53.28939,33.26013c1.114,0,1.551,1.109,1.551,2.099,0,.991-.437,2.1-1.551,2.1s-1.55-1.109-1.55-2.1C51.73939,34.36914,52.17538,33.26013,53.28939,33.26013Zm0,3.176c.415,0,.431-.823.431-1.077,0-.253-.016-1.076-.431-1.076-.414,0-.431.823-.431,1.076C52.85838,35.61313,52.87539,36.43613,53.28939,36.43613Z" transform="translate(14.55257 17.15155)" fill="none" stroke="#005baa" stroke-width="1.794"/>
          <path d="M58.13909,37.3887l-.102-2.551h-.011c-.05.296-.087.592-.14.888l-.313,1.663h-.893l-.382-2.551h-.01c-.006.301,0,.597-.017.899l-.091,1.652h-1.179l.474-4.058h1.366l.313,2.158h.011c.032-.253.059-.5.106-.754l.265-1.404h1.351l.392,4.058Z" transform="translate(14.55257 17.15155)" fill="none" stroke="#005baa" stroke-width="1.794"/>
          <rect x="74.11257" y="50.48157" width="1.09801" height="4.05801" fill="none" stroke="#005baa" stroke-width="1.794"/>
          <path d="M61.0781,36.02213a.927.927,0,0,0,.694.452.29737.29737,0,0,0,.323-.269.31721.31721,0,0,0-.087-.227.85839.85839,0,0,0-.183-.156,2.61271,2.61271,0,0,1-.543-.517,1.17683,1.17683,0,0,1-.22-.71,1.273,1.273,0,0,1,1.238-1.335,1.72018,1.72018,0,0,1,.78.205v1.233a.89389.89389,0,0,0-.647-.437.27274.27274,0,0,0-.284.248.34381.34381,0,0,0,.107.226,1.8338,1.8338,0,0,0,.199.167,2.01965,2.01965,0,0,1,.538.495,1.15041,1.15041,0,0,1,.199.705,1.29078,1.29078,0,0,1-1.291,1.357,2.17626,2.17626,0,0,1-.823-.167Z" transform="translate(14.55257 17.15155)" fill="none" stroke="#005baa" stroke-width="1.794"/>
          <path d="M65.02309,33.26013c1.114,0,1.55,1.109,1.55,2.099,0,.991-.436,2.1-1.55,2.1s-1.551-1.109-1.551-2.1C63.47208,34.36914,63.90908,33.26013,65.02309,33.26013Zm0,3.176c.415,0,.43-.823.43-1.077,0-.253-.015-1.076-.43-1.076s-.431.823-.431,1.076C64.59208,35.61313,64.60809,36.43613,65.02309,36.43613Z" transform="translate(14.55257 17.15155)" fill="none" stroke="#005baa" stroke-width="1.794"/>
          <path d="M44.37319,43.668l-.08-.522h-.737l-.092.522h-1.13l.974-4.058h1.34l.862,4.058Zm-.209-1.383-.118-.942c-.033-.253-.054-.512-.081-.765h-.011c-.032.253-.059.512-.103.765l-.15.942Z" transform="translate(14.55257 17.15155)" fill="none" stroke="#005baa" stroke-width="1.794"/>
          <path d="M47.96929,40.7991a.67.67,0,0,0-.511-.237c-.571,0-.711.63-.711,1.077,0,.474.14,1.076.689,1.076a.79861.79861,0,0,0,.581-.258l-.064,1.136a1.57618,1.57618,0,0,1-.662.145c-.899,0-1.663-.684-1.663-2.072,0-1.82,1.249-2.127,1.781-2.127a1.512,1.512,0,0,1,.56.098Z" transform="translate(14.55257 17.15155)" fill="none" stroke="#005baa" stroke-width="1.794"/>
          <path d="M50.71951,40.7991a.67.67,0,0,0-.511-.237c-.571,0-.711.63-.711,1.077,0,.474.14,1.076.69,1.076a.802.802,0,0,0,.581-.258l-.065,1.136a1.57617,1.57617,0,0,1-.662.145c-.899,0-1.663-.684-1.663-2.072,0-1.82,1.249-2.127,1.781-2.127a1.51212,1.51212,0,0,1,.56.098Z" transform="translate(14.55257 17.15155)" fill="none" stroke="#005baa" stroke-width="1.794"/>
          <rect x="65.79957" y="56.76157" width="1.099" height="4.05801" fill="none" stroke="#005baa" stroke-width="1.794"/>
          <path d="M54.29369,39.53952c1.113,0,1.55,1.109,1.55,2.099,0,.991-.437,2.099-1.55,2.099-1.114,0-1.551-1.108-1.551-2.099C52.74268,40.64853,53.17968,39.53952,54.29369,39.53952Zm0,3.176c.414,0,.43-.823.43-1.077,0-.253-.016-1.076-.43-1.076-.415,0-.431.823-.431,1.076C53.86268,41.89252,53.87868,42.71552,54.29369,42.71552Z" transform="translate(14.55257 17.15155)" fill="none" stroke="#005baa" stroke-width="1.794"/>
          <path d="M56.24709,39.60992h1.044l.878,2.444.01-.012c-.042-.468-.124-.931-.124-1.399v-1.033h1.055v4.058h-1.055l-.818-2.341-.01.011c.027.382.075.758.075,1.14v1.19h-1.055Z" transform="translate(14.55257 17.15155)" fill="none" stroke="#005baa" stroke-width="1.794"/>
          <path d="M37.493,34.51962a.66676.66676,0,0,0-.511-.237c-.571,0-.711.63-.711,1.077,0,.474.14,1.076.689,1.076a.79869.79869,0,0,0,.582-.258l-.065,1.136a1.57618,1.57618,0,0,1-.662.145c-.899,0-1.663-.684-1.663-2.072,0-1.82,1.248-2.126,1.781-2.126a1.51487,1.51487,0,0,1,.56.097Z" transform="translate(14.55257 17.15155)" fill="#eeb310"/>
          <path d="M39.4464,33.26013c1.115,0,1.55,1.109,1.55,2.099,0,.991-.435,2.1-1.55,2.1-1.114,0-1.55-1.109-1.55-2.1,0-.99.436-2.099,1.55-2.099m0,3.176c.415,0,.431-.823.431-1.077,0-.253-.016-1.076-.431-1.076s-.43.823-.43,1.076c0,.254.015,1.077.43,1.077" transform="translate(14.55257 17.15155)" fill="#eeb310"/>
          <path d="M44.2962,37.3887l-.102-2.551h-.011c-.049.296-.086.592-.14.888l-.312,1.663h-.894l-.382-2.551h-.011c-.005.301,0,.597-.016.899l-.092,1.652h-1.178l.474-4.058h1.366l.313,2.158h.011c.032-.253.058-.5.107-.754l.264-1.404h1.351l.393,4.058Z" transform="translate(14.55257 17.15155)" fill="#eeb310"/>
          <path d="M45.71758,37.38831v-4.058h1.001c.957,0,1.694.312,1.694,1.378,0,1.055-.645,1.378-1.598,1.351v1.329Zm1.178-3.186-.081.005v.937a.42046.42046,0,0,0,.49-.452c0-.259-.14-.49-.409-.49" transform="translate(14.55257 17.15155)" fill="#eeb310"/>
          <path d="M50.43758,37.389l-.609-1.69-.01.01c.005.199.016.399.016.598v1.082h-1.098v-4.058h1.061c.952,0,1.641.279,1.641,1.35a1.02346,1.02346,0,0,1-.63,1.018l.818,1.69Zm-.533-2.18a.46986.46986,0,0,0,.446-.517.44336.44336,0,0,0-.516-.49v1.002Z" transform="translate(14.55257 17.15155)" fill="#eeb310"/>
          <path d="M53.28939,33.26013c1.114,0,1.551,1.109,1.551,2.099,0,.991-.437,2.1-1.551,2.1s-1.55-1.109-1.55-2.1c0-.99.436-2.099,1.55-2.099m0,3.176c.415,0,.431-.823.431-1.077,0-.253-.016-1.076-.431-1.076-.414,0-.431.823-.431,1.076,0,.254.017,1.077.431,1.077" transform="translate(14.55257 17.15155)" fill="#eeb310"/>
          <path d="M58.13909,37.3887l-.102-2.551h-.011c-.05.296-.087.592-.14.888l-.313,1.663h-.893l-.382-2.551h-.01c-.006.301,0,.597-.017.899l-.091,1.652h-1.179l.474-4.058h1.366l.313,2.158h.011c.032-.253.059-.5.106-.754l.265-1.404h1.351l.392,4.058Z" transform="translate(14.55257 17.15155)" fill="#eeb310"/>
          <rect x="74.11257" y="50.48157" width="1.099" height="4.05801" fill="#eeb310"/>
          <path d="M61.0781,36.02213a.927.927,0,0,0,.694.452.29737.29737,0,0,0,.323-.269.31721.31721,0,0,0-.087-.227.85839.85839,0,0,0-.183-.156,2.61271,2.61271,0,0,1-.543-.517,1.17683,1.17683,0,0,1-.22-.71,1.273,1.273,0,0,1,1.238-1.335,1.72018,1.72018,0,0,1,.78.205v1.233a.89389.89389,0,0,0-.647-.437.27274.27274,0,0,0-.284.248.34381.34381,0,0,0,.107.226,1.8338,1.8338,0,0,0,.199.167,2.01965,2.01965,0,0,1,.538.495,1.15041,1.15041,0,0,1,.199.705,1.29078,1.29078,0,0,1-1.291,1.357,2.17626,2.17626,0,0,1-.823-.167Z" transform="translate(14.55257 17.15155)" fill="#eeb310"/>
          <path d="M65.02309,33.26013c1.114,0,1.55,1.109,1.55,2.099,0,.991-.436,2.1-1.55,2.1s-1.551-1.109-1.551-2.1c0-.99.437-2.099,1.551-2.099m0,3.176c.415,0,.43-.823.43-1.077,0-.253-.015-1.076-.43-1.076s-.431.823-.431,1.076c0,.254.016,1.077.431,1.077" transform="translate(14.55257 17.15155)" fill="#eeb310"/>
          <path d="M44.37319,43.668l-.08-.522h-.737l-.092.522h-1.13l.974-4.058h1.34l.862,4.058Zm-.209-1.383-.118-.942c-.033-.253-.054-.512-.081-.765h-.011c-.032.253-.059.512-.103.765l-.15.942Z" transform="translate(14.55257 17.15155)" fill="#eeb310"/>
          <path d="M47.96929,40.7991a.67.67,0,0,0-.511-.237c-.571,0-.711.63-.711,1.077,0,.474.14,1.076.689,1.076a.79861.79861,0,0,0,.581-.258l-.064,1.136a1.57618,1.57618,0,0,1-.662.145c-.899,0-1.663-.684-1.663-2.072,0-1.82,1.249-2.127,1.781-2.127a1.512,1.512,0,0,1,.56.098Z" transform="translate(14.55257 17.15155)" fill="#eeb310"/>
          <path d="M50.71951,40.7991a.67.67,0,0,0-.511-.237c-.571,0-.711.63-.711,1.077,0,.474.14,1.076.69,1.076a.802.802,0,0,0,.581-.258l-.065,1.136a1.57617,1.57617,0,0,1-.662.145c-.899,0-1.663-.684-1.663-2.072,0-1.82,1.249-2.127,1.781-2.127a1.51212,1.51212,0,0,1,.56.098Z" transform="translate(14.55257 17.15155)" fill="#eeb310"/>
          <rect x="65.79957" y="56.76157" width="1.099" height="4.05801" fill="#eeb310"/>
          <path d="M54.29369,39.53952c1.113,0,1.55,1.109,1.55,2.099,0,.991-.437,2.099-1.55,2.099-1.114,0-1.551-1.108-1.551-2.099,0-.99.437-2.099,1.551-2.099m0,3.176c.414,0,.43-.823.43-1.077,0-.253-.016-1.076-.43-1.076-.415,0-.431.823-.431,1.076,0,.254.016,1.077.431,1.077" transform="translate(14.55257 17.15155)" fill="#eeb310"/>
          <path d="M56.24709,39.60992h1.044l.878,2.444.01-.012c-.042-.468-.124-.931-.124-1.399v-1.033h1.055v4.058h-1.055l-.818-2.341-.01.011c.027.382.075.758.075,1.14v1.19h-1.055Z" transform="translate(14.55257 17.15155)" fill="#eeb310"/>
          <path d="M37.493,34.51962a.66676.66676,0,0,0-.511-.237c-.571,0-.711.63-.711,1.077,0,.474.14,1.076.689,1.076a.79869.79869,0,0,0,.582-.258l-.065,1.136a1.57618,1.57618,0,0,1-.662.145c-.899,0-1.663-.684-1.663-2.072,0-1.82,1.248-2.126,1.781-2.126a1.51487,1.51487,0,0,1,.56.097Z" transform="translate(14.55257 17.15155)" fill="#fff"/>
          <path d="M39.4464,33.26013c1.115,0,1.55,1.109,1.55,2.099,0,.991-.435,2.1-1.55,2.1-1.114,0-1.55-1.109-1.55-2.1,0-.99.436-2.099,1.55-2.099m0,3.176c.415,0,.431-.823.431-1.077,0-.253-.016-1.076-.431-1.076s-.43.823-.43,1.076c0,.254.015,1.077.43,1.077" transform="translate(14.55257 17.15155)" fill="#fff"/>
          <path d="M44.2962,37.3887l-.102-2.551h-.011c-.049.296-.086.592-.14.888l-.312,1.663h-.894l-.382-2.551h-.011c-.005.301,0,.597-.016.899l-.092,1.652h-1.178l.474-4.058h1.366l.313,2.158h.011c.032-.253.058-.5.107-.754l.264-1.404h1.351l.393,4.058Z" transform="translate(14.55257 17.15155)" fill="#fff"/>
          <path d="M45.71758,37.38831v-4.058h1.001c.957,0,1.694.312,1.694,1.378,0,1.055-.645,1.378-1.598,1.351v1.329Zm1.178-3.186-.081.005v.937a.42046.42046,0,0,0,.49-.452c0-.259-.14-.49-.409-.49" transform="translate(14.55257 17.15155)" fill="#fff"/>
          <path d="M50.43758,37.389l-.609-1.69-.01.01c.005.199.016.399.016.598v1.082h-1.098v-4.058h1.061c.952,0,1.641.279,1.641,1.35a1.02346,1.02346,0,0,1-.63,1.018l.818,1.69Zm-.533-2.18a.46986.46986,0,0,0,.446-.517.44336.44336,0,0,0-.516-.49v1.002Z" transform="translate(14.55257 17.15155)" fill="#fff"/>
          <path d="M53.28939,33.26013c1.114,0,1.551,1.109,1.551,2.099,0,.991-.437,2.1-1.551,2.1s-1.55-1.109-1.55-2.1c0-.99.436-2.099,1.55-2.099m0,3.176c.415,0,.431-.823.431-1.077,0-.253-.016-1.076-.431-1.076-.414,0-.431.823-.431,1.076,0,.254.017,1.077.431,1.077" transform="translate(14.55257 17.15155)" fill="#fff"/>
          <path d="M58.13909,37.3887l-.102-2.551h-.011c-.05.296-.087.592-.14.888l-.313,1.663h-.893l-.382-2.551h-.01c-.006.301,0,.597-.017.899l-.091,1.652h-1.179l.474-4.058h1.366l.313,2.158h.011c.032-.253.059-.5.106-.754l.265-1.404h1.351l.392,4.058Z" transform="translate(14.55257 17.15155)" fill="#fff"/>
          <rect x="74.11257" y="50.48157" width="1.099" height="4.05801" fill="#fff"/>
          <path d="M61.0781,36.02213a.927.927,0,0,0,.694.452.29737.29737,0,0,0,.323-.269.31721.31721,0,0,0-.087-.227.85839.85839,0,0,0-.183-.156,2.61271,2.61271,0,0,1-.543-.517,1.17683,1.17683,0,0,1-.22-.71,1.273,1.273,0,0,1,1.238-1.335,1.72018,1.72018,0,0,1,.78.205v1.233a.89389.89389,0,0,0-.647-.437.27274.27274,0,0,0-.284.248.34381.34381,0,0,0,.107.226,1.8338,1.8338,0,0,0,.199.167,2.01965,2.01965,0,0,1,.538.495,1.15041,1.15041,0,0,1,.199.705,1.29078,1.29078,0,0,1-1.291,1.357,2.17626,2.17626,0,0,1-.823-.167Z" transform="translate(14.55257 17.15155)" fill="#fff"/>
          <path d="M65.02309,33.26013c1.114,0,1.55,1.109,1.55,2.099,0,.991-.436,2.1-1.55,2.1s-1.551-1.109-1.551-2.1c0-.99.437-2.099,1.551-2.099m0,3.176c.415,0,.43-.823.43-1.077,0-.253-.015-1.076-.43-1.076s-.431.823-.431,1.076c0,.254.016,1.077.431,1.077" transform="translate(14.55257 17.15155)" fill="#fff"/>
          <path d="M44.37319,43.668l-.08-.522h-.737l-.092.522h-1.13l.974-4.058h1.34l.862,4.058Zm-.209-1.383-.118-.942c-.033-.253-.054-.512-.081-.765h-.011c-.032.253-.059.512-.103.765l-.15.942Z" transform="translate(14.55257 17.15155)" fill="#fff"/>
          <path d="M47.96929,40.7991a.67.67,0,0,0-.511-.237c-.571,0-.711.63-.711,1.077,0,.474.14,1.076.689,1.076a.79861.79861,0,0,0,.581-.258l-.064,1.136a1.57618,1.57618,0,0,1-.662.145c-.899,0-1.663-.684-1.663-2.072,0-1.82,1.249-2.127,1.781-2.127a1.512,1.512,0,0,1,.56.098Z" transform="translate(14.55257 17.15155)" fill="#fff"/>
          <path d="M50.71951,40.7991a.67.67,0,0,0-.511-.237c-.571,0-.711.63-.711,1.077,0,.474.14,1.076.69,1.076a.802.802,0,0,0,.581-.258l-.065,1.136a1.57617,1.57617,0,0,1-.662.145c-.899,0-1.663-.684-1.663-2.072,0-1.82,1.249-2.127,1.781-2.127a1.51212,1.51212,0,0,1,.56.098Z" transform="translate(14.55257 17.15155)" fill="#fff"/>
          <rect x="65.79957" y="56.76157" width="1.099" height="4.05801" fill="#fff"/>
          <path d="M54.29369,39.53952c1.113,0,1.55,1.109,1.55,2.099,0,.991-.437,2.099-1.55,2.099-1.114,0-1.551-1.108-1.551-2.099,0-.99.437-2.099,1.551-2.099m0,3.176c.414,0,.43-.823.43-1.077,0-.253-.016-1.076-.43-1.076-.415,0-.431.823-.431,1.076,0,.254.016,1.077.431,1.077" transform="translate(14.55257 17.15155)" fill="#fff"/>
          <path d="M56.24709,39.60992h1.044l.878,2.444.01-.012c-.042-.468-.124-.931-.124-1.399v-1.033h1.055v4.058h-1.055l-.818-2.341-.01.011c.027.382.075.758.075,1.14v1.19h-1.055Z" transform="translate(14.55257 17.15155)" fill="#fff"/>
          <path d="M4.5498,60.42682l7.001-1.806.287,1.114c.206.799.395,1.84-1.406,2.304-1.421.366-2.224-.021-2.541-1.484l-3.102.8Zm6.451-.674-2.321.598c.15.813.644.923,1.424.722.631-.162,1.113-.484.93-1.19Z" transform="translate(14.55257 17.15155)" fill="none" stroke="#fff" stroke-width="2.275"/>
          <path d="M9.8896,63.6557l.006.018a1.07811,1.07811,0,0,1,.963.758l-.845.285-.04-.149c-.214-.636-.635-.716-1.217-.521l-2.89.973-.29-.864,4.589-1.544.288.854Z" transform="translate(14.55257 17.15155)" fill="none" stroke="#fff" stroke-width="2.275"/>
          <path d="M8.68439,65.82541c.973-.406,2.373-.835,2.905.439.532,1.275-.758,1.97-1.732,2.375-.937.392-2.347.824-2.878-.45C6.44738,66.9144,7.74538,66.21741,8.68439,65.82541Zm.819,1.964c.354-.147,1.591-.57,1.326-1.207-.267-.637-1.437-.056-1.791.092-.319.133-1.565.56-1.298,1.197C8.00539,68.50842,9.18439,67.9234,9.5034,67.7894Z" transform="translate(14.55257 17.15155)" fill="none" stroke="#fff" stroke-width="2.275"/>
          <path d="M9.35239,73.04553c-1.532.793-2.034.471-2.475-.381a1.29806,1.29806,0,0,1,.586-1.913l.118-.061.402.774c-.315.142-.59.446-.382.847.278.536.77.215,1.162.013l.715-.371-.009-.017a.84688.84688,0,0,1-.975-.467c-.53-1.021.913-1.801,1.645-2.18.69-.357,2.239-1.182,2.781-.135a.926.926,0,0,1-.173,1.084l.026.008.494-.256.419.809Zm3.003-3.231c-.287-.553-1.435.106-1.742.266-.323.168-1.55.738-1.25,1.318.3.579,1.388-.094,1.737-.274C11.44939,70.94354,12.62539,70.33453,12.3554,69.81451Z" transform="translate(14.55257 17.15155)" fill="none" stroke="#fff" stroke-width="2.275"/>
          <path d="M14.0592,72.5647l.01.016a1.07634,1.07634,0,0,1,1.108.525l-.761.464-.072-.135c-.35-.571-.779-.557-1.302-.237l-2.601,1.592-.476-.777,4.13-2.528.471.769Z" transform="translate(14.55257 17.15155)" fill="none" stroke="#fff" stroke-width="2.275"/>
          <path d="M13.1069,77.65543l-.012-.016a.8977.8977,0,0,1-1.088-.319c-.651-.914.782-1.959,1.422-2.417.656-.467,2-1.39,2.662-.461a.93229.93229,0,0,1,.002,1.058l.011.016.437-.312.524.734-3.942,2.813-.524-.734Zm1.484-1.024c.312-.222,1.396-.95,1.045-1.441-.39-.546-1.399.268-1.719.496-.328.234-1.426.924-1.036,1.47C13.2309,77.64844,14.2779,76.85443,14.5909,76.63141Z" transform="translate(14.55257 17.15155)" fill="none" stroke="#fff" stroke-width="2.275"/>
          <path d="M17.6919,77.6857l.013.014a1.01521,1.01521,0,0,1,1.132.265.8506.8506,0,0,1,.077,1.098l.012.015a1.0284,1.0284,0,0,1,1.164.3c.567.638.312,1.146-.168,1.573l-2.804,2.488-.599-.675,2.54-2.252c.265-.236.505-.514.212-.843-.426-.481-.833-.03-1.156.256l-2.303,2.043-.597-.673,2.46-2.183c.28-.262.616-.548.273-.935-.376-.423-.817.019-1.138.278l-2.302,2.043-.598-.674,3.622-3.213.605.68Z" transform="translate(14.55257 17.15155)" fill="none" stroke="#fff" stroke-width="2.275"/>
          <path d="M19.88978,85.14673l-.015-.014a.89474.89474,0,0,1-1.13-.084c-.828-.757.354-2.079.884-2.66.543-.595,1.664-1.779,2.506-1.009a.93229.93229,0,0,1,.224,1.035l.014.013.362-.397.666.608-3.266,3.576-.666-.609Zm1.237-1.313c.258-.283,1.166-1.219.721-1.628-.496-.451-1.313.557-1.578.846-.272.298-1.202,1.202-.706,1.654C20.00979,85.11374,20.86779,84.11774,21.12679,83.83371Z" transform="translate(14.55257 17.15155)" fill="none" stroke="#fff" stroke-width="2.275"/>
          <path d="M24.66819,88.90292l-.016-.012a.90406.90406,0,0,1-1.132.059c-.917-.645.088-2.107.54-2.75.465-.659,1.426-1.975,2.359-1.318a.90087.90087,0,0,1,.353.998l.015.011,2.103-2.987.737.519-4.581,6.508-.736-.519Zm1.061-1.458c.221-.314,1.003-1.359.508-1.706-.548-.387-1.231.716-1.457,1.038-.232.328-1.039,1.344-.49,1.73C24.78419,88.85393,25.50819,87.75792,25.72919,87.44492Z" transform="translate(14.55257 17.15155)" fill="none" stroke="#fff" stroke-width="2.275"/>
          <path d="M27.85288,89.031c-.204.347-.786,1.296-.282,1.593.413.244.755-.167.945-.489l.719.423c-.453.769-1.205,1.271-2.081.756-1.165-.687-.542-1.99-.021-2.874.501-.85,1.385-2.123,2.533-1.445,1.131.668.485,2.067-.021,2.925l-.074.124Zm1.252-.008c.189-.321.623-1.057.152-1.335-.488-.286-.888.468-1.077.79Z" transform="translate(14.55257 17.15155)" fill="none" stroke="#fff" stroke-width="2.275"/>
          <path d="M35.93089,87.54962l-1.407,7.26-.891-.379.306-1.402-1.323-.565-.8,1.192-.865-.369,4.284-6.034Zm-1.597,3.697.695-2.56-.017-.006-1.969,3.152,1.057.451Z" transform="translate(14.55257 17.15155)" fill="none" stroke="#fff" stroke-width="2.275"/>
          <path d="M37.6898,90.76491l-.939,2.881c-.134.41-.384.995.199,1.184.575.188.692-.389.825-.8l.954-2.927.858.28-1.014,3.109c-.309.949-.794,1.475-1.842,1.135-1.249-.407-1.193-1.166-.852-2.215l.954-2.926Z" transform="translate(14.55257 17.15155)" fill="none" stroke="#fff" stroke-width="2.275"/>
          <polygon points="56.303 107.667 55.966 108.996 56.431 109.113 56.257 109.802 55.792 109.684 54.778 113.691 53.904 113.469 54.918 109.463 54.445 109.343 54.618 108.655 55.092 108.775 55.429 107.446 56.303 107.667" fill="none" stroke="#fff" stroke-width="2.275"/>
          <path d="M41.8068,94.45772c.191-1.036.597-2.444,1.955-2.193,1.357.251,1.234,1.71,1.043,2.748-.184.999-.592,2.416-1.95,2.164C41.49679,96.92772,41.62179,95.45872,41.8068,94.45772Zm2.093.387c.069-.378.391-1.643-.288-1.77-.679-.124-.831,1.173-.901,1.551-.062.34-.385,1.616.293,1.74C43.68279,96.49171,43.8368,95.18372,43.8998,94.84471Z" transform="translate(14.55257 17.15155)" fill="none" stroke="#fff" stroke-width="2.275"/>
          <path d="M46.403,95.365c-.041.4-.174,1.505.407,1.564.477.049.617-.467.655-.838l.83.084c-.09.888-.565,1.658-1.576,1.555-1.345-.138-1.322-1.582-1.218-2.602.101-.983.373-2.507,1.699-2.37,1.307.133,1.303,1.675,1.201,2.667l-.014.142Zm1.133-.53c.039-.372.126-1.221-.418-1.277-.563-.058-.612.795-.649,1.168Z" transform="translate(14.55257 17.15155)" fill="none" stroke="#fff" stroke-width="2.275"/>
          <polygon points="64.52 110.186 65.082 113.865 65.101 113.865 65.138 113.578 65.54 111.631 65.872 110.22 66.745 110.241 65.35 115.051 64.755 115.036 63.562 110.163 64.52 110.186" fill="none" stroke="#fff" stroke-width="2.275"/>
          <path d="M54.84438,97.18231l-.019.001c-.159.432-.335.72-.852.748-1.12.061-1.236-1.709-1.279-2.495-.044-.803-.104-2.434,1.036-2.496a.93651.93651,0,0,1,.895.567l.019-.001-.03-.537.9-.049.264,4.836-.9.049Zm-.069-1.802c-.021-.383-.053-1.687-.657-1.653-.67.036-.523,1.324-.501,1.717.021.402.015,1.7.685,1.662C54.90539,97.07431,54.79739,95.76431,54.7754,95.38031Z" transform="translate(14.55257 17.15155)" fill="none" stroke="#fff" stroke-width="2.275"/>
          <rect x="56.39898" y="89.65145" width="0.90103" height="7.95853" transform="translate(4.12493 24.33943) rotate(-6.62832)" fill="none" stroke="#fff" stroke-width="2.275"/>
          <path d="M58.8847,92.47661l.533,2.982c.077.425.132,1.059.736.95.595-.106.426-.671.35-1.095l-.542-3.03.886-.159.577,3.219c.175.981-.003,1.676-1.088,1.87-1.293.231-1.603-.463-1.797-1.548l-.542-3.03Z" transform="translate(14.55257 17.15155)" fill="none" stroke="#fff" stroke-width="2.275"/>
          <path d="M64.55338,95.534l-.018.004c-.068.455-.181.774-.681.907-1.084.29-1.562-1.418-1.764-2.178-.208-.779-.602-2.36.501-2.655a.9339.9339,0,0,1,.992.369l.018-.004-.138-.519.87-.233,1.251,4.677-.87.234Zm-.438-1.75c-.099-.37-.4-1.639-.983-1.483-.647.173-.24,1.404-.138,1.784.104.388.364,1.659,1.012,1.485C64.59039,95.414,64.21439,94.155,64.11539,93.784Z" transform="translate(14.55257 17.15155)" fill="none" stroke="#fff" stroke-width="2.275"/>
          <path d="M67.32,91.25681l-.018.006a.4868.4868,0,0,0-.474-.079c-.731.263-.395,1.294-.225,1.782.16.462.575,1.597,1.29,1.35a.70732.70732,0,0,0,.376-.323l.273.788a1.40254,1.40254,0,0,1-.626.42c-1.206.418-1.84-.945-2.155-1.851-.326-.943-.723-2.439.527-2.872a1.55131,1.55131,0,0,1,.733-.082Z" transform="translate(14.55257 17.15155)" fill="none" stroke="#fff" stroke-width="2.275"/>
          <path d="M66.882,88.77641a.59982.59982,0,0,1,1.112-.45.59981.59981,0,1,1-1.112.45Zm3.332,5.458-.835.338-1.814-4.489.835-.338Z" transform="translate(14.55257 17.15155)" fill="none" stroke="#fff" stroke-width="2.275"/>
          <path d="M69.92849,88.40562l-.553-.045.095-1.628.757.096Zm.139,3.301c-.454-.953-.952-2.329.294-2.924,1.248-.594,2.004.661,2.458,1.612.438.918.939,2.304-.307,2.898S70.50449,92.62361,70.06748,91.70662Zm1.922-.915c-.165-.347-.649-1.56-1.273-1.264-.622.296.017,1.437.182,1.783.148.312.635,1.534,1.258,1.238C72.77949,92.25162,72.13648,91.10362,71.98949,90.79161Z" transform="translate(14.55257 17.15155)" fill="none" stroke="#fff" stroke-width="2.275"/>
          <path d="M73.40319,87.91582l.016-.01a1.02817,1.02817,0,0,1,.526-1.039c.829-.484,1.283.239,1.656.877l1.676,2.874-.779.455-1.686-2.891c-.169-.29-.435-.634-.849-.393-.514.3-.13.865.077,1.22l1.522,2.61-.778.453-2.44-4.182.779-.454Z" transform="translate(14.55257 17.15155)" fill="none" stroke="#fff" stroke-width="2.275"/>
          <path d="M77.18259,81.82953l5.66,4.761-.766.593-1.075-.949-1.138.882.653,1.278-.742.576-3.19-6.676Zm2.454,3.194-1.898-1.853-.014.013,1.795,3.254.91-.705Z" transform="translate(14.55257 17.15155)" fill="none" stroke="#fff" stroke-width="2.275"/>
          <path d="M82.3435,81.8468l-.014.012a.48854.48854,0,0,0-.467.113c-.57.528.142,1.344.49,1.729.327.363,1.152,1.246,1.714.739a.71217.71217,0,0,0,.22-.445l.558.619a1.39359,1.39359,0,0,1-.412.632c-.946.854-2.063-.154-2.705-.864-.669-.74-1.619-1.962-.637-2.85a1.53964,1.53964,0,0,1,.643-.361Z" transform="translate(14.55257 17.15155)" fill="none" stroke="#fff" stroke-width="2.275"/>
          <path d="M86.4914,82.22864l-.014.013a.89374.89374,0,0,1-.111,1.128c-.777.81-2.071-.404-2.638-.949-.581-.558-1.737-1.707-.946-2.531a.93412.93412,0,0,1,1.039-.198l.014-.013-.388-.372.625-.65,3.493,3.352-.623.652Zm-1.28-1.269c-.277-.266-1.191-1.197-1.61-.76-.465.484.523,1.324.806,1.596.29.28,1.171,1.232,1.637.748C86.46239,82.10663,85.48739,81.22464,85.2114,80.95963Z" transform="translate(14.55257 17.15155)" fill="none" stroke="#fff" stroke-width="2.275"/>
          <path d="M89.0738,79.24063l-.011.016a.90281.90281,0,0,1-.02,1.133c-.707.871-2.096-.234-2.705-.729-.627-.507-1.873-1.559-1.152-2.444a.90244.90244,0,0,1,1.021-.283l.011-.015-2.835-2.304.568-.699,6.176,5.019-.568.7Zm-1.379-1.158c-.299-.242-1.285-1.095-1.666-.626-.424.52.628,1.278.934,1.526.312.254,1.268,1.13,1.691.609C89.0348,79.12262,87.9918,78.32364,87.6948,78.08261Z" transform="translate(14.55257 17.15155)" fill="none" stroke="#fff" stroke-width="2.275"/>
          <path d="M86.95869,74.00662l-.5.238-.733-1.458.704-.296Zm2.467,2.067c.331.228,1.237.874,1.568.392.271-.396-.115-.765-.424-.977l.474-.688c.735.505,1.184,1.291.609,2.129-.767,1.114-2.022.402-2.868-.179-.813-.559-2.022-1.529-1.267-2.628.745-1.082,2.095-.34,2.918.226l.119.081Zm.077-1.249c-.308-.212-1.012-.696-1.32-.245-.321.466.404.918.713,1.13Z" transform="translate(14.55257 17.15155)" fill="none" stroke="#fff" stroke-width="2.275"/>
          <path d="M89.7449,71.92831l.008-.017a1.01242,1.01242,0,0,1-.135-1.155.84881.84881,0,0,1,1.006-.445l.01-.017a1.032,1.032,0,0,1-.114-1.197c.408-.75.972-.682,1.537-.375l3.293,1.792-.431.792-2.981-1.623c-.312-.169-.655-.302-.867.086-.306.564.257.794.635,1.001l2.704,1.471-.431.791-2.889-1.572c-.341-.175-.724-.395-.972.06-.271.497.296.762.648.976l2.703,1.471-.431.792-4.251-2.315.435-.8Z" transform="translate(14.55257 17.15155)" fill="none" stroke="#fff" stroke-width="2.275"/>
          <path d="M89.96659,67.00262a.5996.5996,0,0,1,.482-1.098.59961.59961,0,1,1-.482,1.098Zm6.196,1.583-.363.825-4.432-1.949.362-.826Z" transform="translate(14.55257 17.15155)" fill="none" stroke="#fff" stroke-width="2.275"/>
          <path d="M93.69669,64.3642l-.006.018a.4882.4882,0,0,0-.365.312c-.269.729.738,1.133,1.222,1.317.455.175,1.592.587,1.863-.121a.71285.71285,0,0,0-.007-.495l.778.297a1.38976,1.38976,0,0,1-.078.749c-.454,1.193-1.907.803-2.804.462-.932-.355-2.334-1.013-1.862-2.249a1.53429,1.53429,0,0,1,.408-.614Z" transform="translate(14.55257 17.15155)" fill="none" stroke="#fff" stroke-width="2.275"/>
          <path d="M97.56438,62.813l-.006.019c.352.295.564.559.415,1.055-.323,1.075-2.028.583-2.78.357-.772-.232-2.325-.728-1.997-1.821a.9338.9338,0,0,1,.836-.651l.006-.018-.515-.154.259-.863,4.638,1.392-.258.864Zm-1.718-.546c-.368-.11-1.605-.522-1.779.057-.194.642,1.069.942,1.446,1.055.385.116,1.602.561,1.796-.082C97.48238,62.718,96.21239,62.378,95.8464,62.267Z" transform="translate(14.55257 17.15155)" fill="none" stroke="#fff" stroke-width="2.275"/>
          <path d="M4.5498,60.42682l7.001-1.806.287,1.114c.206.799.395,1.84-1.406,2.304-1.421.366-2.224-.021-2.541-1.484l-3.102.8Zm6.451-.674-2.321.598c.15.813.644.923,1.424.722.631-.162,1.113-.484.93-1.19Z" transform="translate(14.55257 17.15155)" fill="#231f20"/>
          <path d="M9.8896,63.6557l.006.018a1.07811,1.07811,0,0,1,.963.758l-.845.285-.04-.149c-.214-.636-.635-.716-1.217-.521l-2.89.973-.29-.864,4.589-1.544.288.854Z" transform="translate(14.55257 17.15155)" fill="#231f20"/>
          <path d="M8.68439,65.82541c.973-.406,2.373-.835,2.905.439.532,1.275-.758,1.97-1.732,2.375-.937.392-2.347.824-2.878-.45-.532-1.275.766-1.972,1.705-2.364m.819,1.964c.354-.147,1.591-.57,1.326-1.207-.267-.637-1.437-.056-1.791.092-.319.133-1.565.56-1.298,1.197.265.637,1.444.052,1.763-.082" transform="translate(14.55257 17.15155)" fill="#231f20"/>
          <path d="M9.35239,73.04553c-1.532.793-2.034.471-2.475-.381a1.29806,1.29806,0,0,1,.586-1.913l.118-.061.402.774c-.315.142-.59.446-.382.847.278.536.77.215,1.162.013l.715-.371-.009-.017a.84688.84688,0,0,1-.975-.467c-.53-1.021.913-1.801,1.645-2.18.69-.357,2.239-1.182,2.781-.135a.926.926,0,0,1-.173,1.084l.026.008.494-.256.419.809Zm3.003-3.231c-.287-.553-1.435.106-1.742.266-.323.168-1.55.738-1.25,1.318.3.579,1.388-.094,1.737-.274.349-.181,1.525-.79,1.255-1.31" transform="translate(14.55257 17.15155)" fill="#231f20"/>
          <path d="M14.0592,72.5647l.01.016a1.07634,1.07634,0,0,1,1.108.525l-.761.464-.072-.135c-.35-.571-.779-.557-1.302-.237l-2.601,1.592-.476-.777,4.13-2.528.471.769Z" transform="translate(14.55257 17.15155)" fill="#231f20"/>
          <path d="M13.1069,77.65543l-.012-.016a.8977.8977,0,0,1-1.088-.319c-.651-.914.782-1.959,1.422-2.417.656-.467,2-1.39,2.662-.461a.93229.93229,0,0,1,.002,1.058l.011.016.437-.312.524.734-3.942,2.813-.524-.734Zm1.484-1.024c.312-.222,1.396-.95,1.045-1.441-.39-.546-1.399.268-1.719.496-.328.234-1.426.924-1.036,1.47.35.492,1.397-.302,1.71-.525" transform="translate(14.55257 17.15155)" fill="#231f20"/>
          <path d="M17.6919,77.6857l.013.014a1.01521,1.01521,0,0,1,1.132.265.8506.8506,0,0,1,.077,1.098l.012.015a1.0284,1.0284,0,0,1,1.164.3c.567.638.312,1.146-.168,1.573l-2.804,2.488-.599-.675,2.54-2.252c.265-.236.505-.514.212-.843-.426-.481-.833-.03-1.156.256l-2.303,2.043-.597-.673,2.46-2.183c.28-.262.616-.548.273-.935-.376-.423-.817.019-1.138.278l-2.302,2.043-.598-.674,3.622-3.213.605.68Z" transform="translate(14.55257 17.15155)" fill="#231f20"/>
          <path d="M19.88978,85.14673l-.015-.014a.89474.89474,0,0,1-1.13-.084c-.828-.757.354-2.079.884-2.66.543-.595,1.664-1.779,2.506-1.009a.93229.93229,0,0,1,.224,1.035l.014.013.362-.397.666.608-3.266,3.576-.666-.609Zm1.237-1.313c.258-.283,1.166-1.219.721-1.628-.496-.451-1.313.557-1.578.846-.272.298-1.202,1.202-.706,1.654.446.408,1.304-.588,1.563-.872" transform="translate(14.55257 17.15155)" fill="#231f20"/>
          <path d="M24.66819,88.90292l-.016-.012a.90406.90406,0,0,1-1.132.059c-.917-.645.088-2.107.54-2.75.465-.659,1.426-1.975,2.359-1.318a.90087.90087,0,0,1,.353.998l.015.011,2.103-2.987.737.519-4.581,6.508-.736-.519Zm1.061-1.458c.221-.314,1.003-1.359.508-1.706-.548-.387-1.231.716-1.457,1.038-.232.328-1.039,1.344-.49,1.73.494.347,1.218-.749,1.439-1.062" transform="translate(14.55257 17.15155)" fill="#231f20"/>
          <path d="M27.85288,89.031c-.204.347-.786,1.296-.282,1.593.413.244.755-.167.945-.489l.719.423c-.453.769-1.205,1.271-2.081.756-1.165-.687-.542-1.99-.021-2.874.501-.85,1.385-2.123,2.533-1.445,1.131.668.485,2.067-.021,2.925l-.074.124Zm1.252-.008c.189-.321.623-1.057.152-1.335-.488-.286-.888.468-1.077.79Z" transform="translate(14.55257 17.15155)" fill="#231f20"/>
          <path d="M35.93089,87.54962l-1.407,7.26-.891-.379.306-1.402-1.323-.565-.8,1.192-.865-.369,4.284-6.034Zm-1.597,3.697.695-2.56-.017-.006-1.969,3.152,1.057.451Z" transform="translate(14.55257 17.15155)" fill="#231f20"/>
          <path d="M37.6898,90.76491l-.939,2.881c-.134.41-.384.995.199,1.184.575.188.692-.389.825-.8l.954-2.927.858.28-1.014,3.109c-.309.949-.794,1.475-1.842,1.135-1.249-.407-1.193-1.166-.852-2.215l.954-2.926Z" transform="translate(14.55257 17.15155)" fill="#231f20"/>
          <polygon points="56.303 107.667 55.966 108.996 56.431 109.113 56.257 109.802 55.792 109.684 54.778 113.691 53.904 113.469 54.918 109.463 54.445 109.343 54.618 108.655 55.092 108.775 55.429 107.446 56.303 107.667" fill="#231f20"/>
          <path d="M41.8068,94.45772c.191-1.036.597-2.444,1.955-2.193,1.357.251,1.234,1.71,1.043,2.748-.184.999-.592,2.416-1.95,2.164-1.358-.249-1.233-1.718-1.048-2.719m2.093.387c.069-.378.391-1.643-.288-1.77-.679-.124-.831,1.173-.901,1.551-.062.34-.385,1.616.293,1.74.679.126.833-1.182.896-1.521" transform="translate(14.55257 17.15155)" fill="#231f20"/>
          <path d="M46.403,95.365c-.041.4-.174,1.505.407,1.564.477.049.617-.467.655-.838l.83.084c-.09.888-.565,1.658-1.576,1.555-1.345-.138-1.322-1.582-1.218-2.602.101-.983.373-2.507,1.699-2.37,1.307.133,1.303,1.675,1.201,2.667l-.014.142Zm1.133-.53c.039-.372.126-1.221-.418-1.277-.563-.058-.612.795-.649,1.168Z" transform="translate(14.55257 17.15155)" fill="#231f20"/>
          <polygon points="64.52 110.186 65.082 113.865 65.101 113.865 65.138 113.578 65.54 111.631 65.872 110.22 66.745 110.241 65.35 115.051 64.755 115.036 63.562 110.163 64.52 110.186" fill="#231f20"/>
          <path d="M54.84438,97.18231l-.019.001c-.159.432-.335.72-.852.748-1.12.061-1.236-1.709-1.279-2.495-.044-.803-.104-2.434,1.036-2.496a.93651.93651,0,0,1,.895.567l.019-.001-.03-.537.9-.049.264,4.836-.9.049Zm-.069-1.802c-.021-.383-.053-1.687-.657-1.653-.67.036-.523,1.324-.501,1.717.021.402.015,1.7.685,1.662.603-.032.495-1.342.473-1.726" transform="translate(14.55257 17.15155)" fill="#231f20"/>
          <rect x="56.39898" y="89.65145" width="0.90103" height="7.95853" transform="translate(4.12493 24.33943) rotate(-6.62832)" fill="#231f20"/>
          <path d="M58.8847,92.47661l.533,2.982c.077.425.132,1.059.736.95.595-.106.426-.671.35-1.095l-.542-3.03.886-.159.577,3.219c.175.981-.003,1.676-1.088,1.87-1.293.231-1.603-.463-1.797-1.548l-.542-3.03Z" transform="translate(14.55257 17.15155)" fill="#231f20"/>
          <path d="M64.55338,95.534l-.018.004c-.068.455-.181.774-.681.907-1.084.29-1.562-1.418-1.764-2.178-.208-.779-.602-2.36.501-2.655a.9339.9339,0,0,1,.992.369l.018-.004-.138-.519.87-.233,1.251,4.677-.87.234Zm-.438-1.75c-.099-.37-.4-1.639-.983-1.483-.647.173-.24,1.404-.138,1.784.104.388.364,1.659,1.012,1.485.584-.156.208-1.415.109-1.786" transform="translate(14.55257 17.15155)" fill="#231f20"/>
          <path d="M67.32,91.25681l-.018.006a.4868.4868,0,0,0-.474-.079c-.731.263-.395,1.294-.225,1.782.16.462.575,1.597,1.29,1.35a.70732.70732,0,0,0,.376-.323l.273.788a1.40254,1.40254,0,0,1-.626.42c-1.206.418-1.84-.945-2.155-1.851-.326-.943-.723-2.439.527-2.872a1.55131,1.55131,0,0,1,.733-.082Z" transform="translate(14.55257 17.15155)" fill="#231f20"/>
          <path d="M66.882,88.77641a.59982.59982,0,0,1,1.112-.45.59981.59981,0,1,1-1.112.45m3.332,5.458-.835.338-1.814-4.489.835-.338Z" transform="translate(14.55257 17.15155)" fill="#231f20"/>
          <path d="M69.92849,88.40562l-.553-.045.095-1.628.757.096Zm.139,3.301c-.454-.953-.952-2.329.294-2.924,1.248-.594,2.004.661,2.458,1.612.438.918.939,2.304-.307,2.898s-2.008-.669-2.445-1.586m1.922-.915c-.165-.347-.649-1.56-1.273-1.264-.622.296.017,1.437.182,1.783.148.312.635,1.534,1.258,1.238.623-.297-.02-1.445-.167-1.757" transform="translate(14.55257 17.15155)" fill="#231f20"/>
          <path d="M73.40319,87.91582l.016-.01a1.02817,1.02817,0,0,1,.526-1.039c.829-.484,1.283.239,1.656.877l1.676,2.874-.779.455-1.686-2.891c-.169-.29-.435-.634-.849-.393-.514.3-.13.865.077,1.22l1.522,2.61-.778.453-2.44-4.182.779-.454Z" transform="translate(14.55257 17.15155)" fill="#231f20"/>
          <path d="M77.18259,81.82953l5.66,4.761-.766.593-1.075-.949-1.138.882.653,1.278-.742.576-3.19-6.676Zm2.454,3.194-1.898-1.853-.014.013,1.795,3.254.91-.705Z" transform="translate(14.55257 17.15155)" fill="#231f20"/>
          <path d="M82.3435,81.8468l-.014.012a.48854.48854,0,0,0-.467.113c-.57.528.142,1.344.49,1.729.327.363,1.152,1.246,1.714.739a.71217.71217,0,0,0,.22-.445l.558.619a1.39359,1.39359,0,0,1-.412.632c-.946.854-2.063-.154-2.705-.864-.669-.74-1.619-1.962-.637-2.85a1.53964,1.53964,0,0,1,.643-.361Z" transform="translate(14.55257 17.15155)" fill="#231f20"/>
          <path d="M86.4914,82.22864l-.014.013a.89374.89374,0,0,1-.111,1.128c-.777.81-2.071-.404-2.638-.949-.581-.558-1.737-1.707-.946-2.531a.93412.93412,0,0,1,1.039-.198l.014-.013-.388-.372.625-.65,3.493,3.352-.623.652Zm-1.28-1.269c-.277-.266-1.191-1.197-1.61-.76-.465.484.523,1.324.806,1.596.29.28,1.171,1.232,1.637.748.418-.437-.557-1.319-.833-1.584" transform="translate(14.55257 17.15155)" fill="#231f20"/>
          <path d="M89.0738,79.24063l-.011.016a.90281.90281,0,0,1-.02,1.133c-.707.871-2.096-.234-2.705-.729-.627-.507-1.873-1.559-1.152-2.444a.90244.90244,0,0,1,1.021-.283l.011-.015-2.835-2.304.568-.699,6.176,5.019-.568.7Zm-1.379-1.158c-.299-.242-1.285-1.095-1.666-.626-.424.52.628,1.278.934,1.526.312.254,1.268,1.13,1.691.609.381-.469-.662-1.268-.959-1.509" transform="translate(14.55257 17.15155)" fill="#231f20"/>
          <path d="M86.95869,74.00662l-.5.238-.733-1.458.704-.296Zm2.467,2.067c.331.228,1.237.874,1.568.392.271-.396-.115-.765-.424-.977l.474-.688c.735.505,1.184,1.291.609,2.129-.767,1.114-2.022.402-2.868-.179-.813-.559-2.022-1.529-1.267-2.628.745-1.082,2.095-.34,2.918.226l.119.081Zm.077-1.249c-.308-.212-1.012-.696-1.32-.245-.321.466.404.918.713,1.13Z" transform="translate(14.55257 17.15155)" fill="#231f20"/>
          <path d="M89.7449,71.92831l.008-.017a1.01242,1.01242,0,0,1-.135-1.155.84881.84881,0,0,1,1.006-.445l.01-.017a1.032,1.032,0,0,1-.114-1.197c.408-.75.972-.682,1.537-.375l3.293,1.792-.431.792-2.981-1.623c-.312-.169-.655-.302-.867.086-.306.564.257.794.635,1.001l2.704,1.471-.431.791-2.889-1.572c-.341-.175-.724-.395-.972.06-.271.497.296.762.648.976l2.703,1.471-.431.792-4.251-2.315.435-.8Z" transform="translate(14.55257 17.15155)" fill="#231f20"/>
          <path d="M89.96659,67.00262a.5996.5996,0,0,1,.482-1.098.59961.59961,0,1,1-.482,1.098m6.196,1.583-.363.825-4.432-1.949.362-.826Z" transform="translate(14.55257 17.15155)" fill="#231f20"/>
          <path d="M93.69669,64.3642l-.006.018a.4882.4882,0,0,0-.365.312c-.269.729.738,1.133,1.222,1.317.455.175,1.592.587,1.863-.121a.71285.71285,0,0,0-.007-.495l.778.297a1.38976,1.38976,0,0,1-.078.749c-.454,1.193-1.907.803-2.804.462-.932-.355-2.334-1.013-1.862-2.249a1.53429,1.53429,0,0,1,.408-.614Z" transform="translate(14.55257 17.15155)" fill="#231f20"/>
          <path d="M97.56438,62.813l-.006.019c.352.295.564.559.415,1.055-.323,1.075-2.028.583-2.78.357-.772-.232-2.325-.728-1.997-1.821a.9338.9338,0,0,1,.836-.651l.006-.018-.515-.154.259-.863,4.638,1.392-.258.864Zm-1.718-.546c-.368-.11-1.605-.522-1.779.057-.194.642,1.069.942,1.446,1.055.385.116,1.602.561,1.796-.082.173-.579-1.097-.919-1.463-1.03" transform="translate(14.55257 17.15155)" fill="#231f20"/>
          <path d="M3.03809,49.12631a48.98607,48.98607,0,0,0,.989,9.805l1.758-.36a46.86295,46.86295,0,1,1,91.454,1.638l1.744.423a48.66173,48.66173,0,1,0-95.945-11.506" transform="translate(14.55257 17.15155)" fill="#005baa"/>
        </g>
      </g>
    </g>
  </g>
</svg>
